<?xml version="1.0" encoding="UTF-8" standalone="no"?>
<svg
   width="150mm"
   height="105mm"
   viewBox="0 -105 150 105"
   version="1.1"
   id="svg6"
   sodipodi:docname="postcard.svg"
   xmlns:inkscape="http://www.inkscape.org/namespaces/inkscape"
   xmlns:sodipodi="http://sodipodi.sourceforge.net/DTD/sodipodi-0.dtd"
   xmlns="http://www.w3.org/2000/svg"
   xmlns:svg="http://www.w3.org/2000/svg">
  <defs
     id="defs10" />
  <sodipodi:namedview
     id="namedview8"
     pagecolor="#ffffff"
     bordercolor="#000000"
     borderopacity="0.25"
     inkscape:showpageshadow="2"
     inkscape:pageopacity="0.0"
     inkscape:pagecheckerboard="0"
     inkscape:deskcolor="#d1d1d1"
     inkscape:document-units="mm"
     showgrid="false" />
  <title
     id="title2">OpenSCAD Model</title>
  <path
     d=" M 150,-105 L 0,-105 L 0,-0 L 150,-0 z M 72.1336,-94.8477 L 72.1336,-96.7417 L 72.4306,-96.7417 L 73.0292,-96.3669 L 73.4824,-96.1212 L 73.8602,-95.9628  L 74.2331,-95.8497 L 74.6099,-95.7818 L 75,-95.7591 L 75,-95.3767 L 74.4362,-95.4349 L 73.8435,-95.6096  L 73.1902,-95.9206 L 72.4448,-96.3877 L 72.4448,-94.8477 z M 74.6887,-92.6342 L 74.6887,-93.3645 L 72.4835,-93.3645 L 72.9453,-92.7176 L 72.5994,-92.7176 L 72.1336,-93.3951  L 72.1336,-93.7328 L 74.6887,-93.7328 L 74.6887,-94.4305 L 75,-94.4305 L 75,-92.6342 z M 74.7416,-90.2091 L 74.5176,-90.3243 L 74.3216,-90.4623 L 74.1481,-90.6157 L 73.992,-90.7767 L 73.8498,-90.9407  L 73.7183,-91.1032 L 73.5922,-91.257 L 73.4661,-91.3951 L 73.3369,-91.5129 L 73.2016,-91.6057 L 73.0541,-91.666  L 72.8883,-91.686 L 72.6788,-91.6515 L 72.5221,-91.5477 L 72.4245,-91.3824 L 72.3919,-91.1632 L 72.4237,-90.9498  L 72.5191,-90.7777 L 72.6719,-90.6574 L 72.8761,-90.5997 L 72.8415,-90.2253 L 72.5328,-90.3187 L 72.2943,-90.5173  L 72.1417,-90.8044 L 72.0908,-91.1632 L 72.142,-91.5464 L 72.2953,-91.8294 L 72.5427,-92.0042 L 72.8761,-92.0624  L 73.0424,-92.0433 L 73.2077,-91.9861 L 73.3725,-91.8913 L 73.5373,-91.7593 L 73.7473,-91.5401 L 74.0479,-91.1835  L 74.2297,-90.9735 L 74.3927,-90.8112 L 74.5435,-90.6922 L 74.6887,-90.6119 L 74.6887,-92.1072 L 75,-92.1072  L 75,-90.2091 z M 72.1336,-87.8958 L 72.1336,-89.7899 L 72.4306,-89.7899 L 73.0292,-89.415 L 73.4824,-89.1694 L 73.8602,-89.011  L 74.2331,-88.8978 L 74.6099,-88.8299 L 75,-88.8072 L 75,-88.4248 L 74.4362,-88.483 L 73.8435,-88.6577  L 73.1902,-88.9687 L 72.4448,-89.4359 L 72.4448,-87.8958 z M 72.6536,-85.6233 L 72.3482,-85.8125 L 72.1552,-86.1141 L 72.0908,-86.5144 L 72.1793,-86.9345 L 72.4448,-87.2386  L 72.8878,-87.4232 L 73.5088,-87.4848 L 74.1618,-87.4174 L 74.644,-87.2152 L 74.9415,-86.8884 L 75.0407,-86.4472  L 75.0053,-86.1449 L 74.8993,-85.9092 L 74.7144,-85.7355 L 74.4426,-85.6193 L 74.3876,-85.9692 L 74.6562,-86.1451  L 74.7457,-86.4534 L 74.6725,-86.7331 L 74.4527,-86.9416 L 74.0972,-87.0733 L 73.6166,-87.1227 L 73.7817,-87.0123  L 73.9106,-86.844 L 73.9937,-86.637 L 74.0215,-86.4106 L 73.9553,-86.0627 L 73.757,-85.7922 L 73.4493,-85.6182  L 73.0551,-85.5603 z M 73.3356,-85.9707 L 73.5505,-86.0851 L 73.6871,-86.2647 L 73.7326,-86.4981 L 73.7145,-86.6512 L 73.6604,-86.7931  L 73.5731,-86.9149 L 73.4559,-87.0077 L 73.3145,-87.0664 L 73.1548,-87.086 L 72.8428,-87.0464 L 72.5984,-86.9274  L 72.4405,-86.7417 L 72.3879,-86.5022 L 72.4329,-86.2657 L 72.5679,-86.0851 L 72.7797,-85.9707 L 73.0551,-85.9326  z M 72.1336,-81.5401 L 72.1336,-82.8888 L 72.1877,-83.3179 L 72.3502,-83.6365 L 72.6094,-83.8341 L 72.9534,-83.8999  L 73.2474,-83.8534 L 73.4905,-83.7138 L 73.668,-83.4923 L 73.7651,-83.2001 L 75,-84.0139 L 75,-83.5663  L 73.8099,-82.8217 L 73.8099,-81.9286 L 75,-81.9286 L 75,-81.5401 z M 73.5027,-82.8665 L 73.4668,-83.1388 L 73.3593,-83.3415 L 73.1871,-83.4674 L 72.9575,-83.5093 L 72.737,-83.4669  L 72.576,-83.3394 L 72.4776,-83.1322 L 72.4448,-82.8502 L 72.4448,-81.9286 L 73.5027,-81.9286 z M 72.941,-78.2488 L 72.4784,-78.531 L 72.1877,-78.9811 L 72.0908,-79.5787 L 72.1343,-79.9871 L 72.2648,-80.3375  L 72.4781,-80.6211 L 72.7703,-80.8288 L 73.1319,-80.9563 L 73.5536,-80.9987 L 73.9752,-80.9557 L 74.3409,-80.8268  L 74.6394,-80.6175 L 74.8596,-80.3335 L 74.9954,-79.9831 L 75.0407,-79.5747 L 74.9959,-79.1635 L 74.8617,-78.8128  L 74.6427,-78.5303 L 74.3439,-78.3235 L 73.977,-78.1969 L 73.5536,-78.1547 z M 74.037,-78.6172 L 74.409,-78.8209 L 74.6463,-79.1451 L 74.7254,-79.5747 L 74.6488,-80.0133 L 74.4192,-80.3365  L 74.0497,-80.5356 L 73.5536,-80.602 L 73.076,-80.5351 L 72.7134,-80.3345 L 72.4845,-80.0118 L 72.4082,-79.5787  L 72.4835,-79.1424 L 72.7093,-78.8178 L 73.0709,-78.6165 L 73.5536,-78.5493 z M 73.5108,-75.2046 L 72.1336,-74.1975 L 72.1336,-74.6268 L 73.2586,-75.4243 L 72.1336,-76.1994 L 72.1336,-76.6286  L 73.4966,-75.648 L 75,-76.712 L 75,-76.2828 L 73.7468,-75.4222 L 75,-74.5434 L 75,-74.1141  z M 72.1336,-71.3533 L 72.1336,-72.3013 L 72.2249,-72.9465 L 72.4988,-73.4253 L 72.941,-73.7221 L 73.5373,-73.821  L 73.9531,-73.7778 L 74.3134,-73.6481 L 74.6071,-73.439 L 74.823,-73.1578 L 74.9558,-72.816 L 75,-72.4254  L 75,-71.3533 z M 74.6887,-72.3807 L 74.6542,-72.6769 L 74.5504,-72.935 L 74.3816,-73.1463 L 74.1517,-73.3022 L 73.8679,-73.3983  L 73.5373,-73.4304 L 73.0676,-73.3574 L 72.7246,-73.1385 L 72.5147,-72.7812 L 72.4448,-72.2932 L 72.4448,-71.7419  L 74.6887,-71.7419 z M 72.1336,-68.5742 L 72.1336,-69.7805 L 72.19,-70.2083 L 72.3594,-70.5271 L 72.6315,-70.7255 L 72.9962,-70.7916  L 73.3613,-70.7252 L 73.6431,-70.5261 L 73.8231,-70.2131 L 73.8831,-69.8049 L 73.8831,-68.9627 L 75,-68.9627  L 75,-68.5742 z M 73.5759,-69.75 L 73.432,-70.2383 L 73.0002,-70.401 L 72.5837,-70.2342 L 72.4448,-69.7338 L 72.4448,-68.9627  L 73.5759,-68.9627 z M 73.4035,-64.9983 L 73.049,-65.1897 L 72.8309,-65.4997 L 72.7581,-65.9191 L 73.0506,-66.6469 L 73.9279,-66.8895  L 73.9767,-66.8895 L 73.9767,-65.3189 L 74.3119,-65.3581 L 74.5606,-65.4756 L 74.7147,-65.6683 L 74.7661,-65.9333  L 74.7422,-66.1477 L 74.6705,-66.3147 L 74.5621,-66.435 L 74.4283,-66.5091 L 74.5199,-66.8305 L 74.9105,-66.5075  L 75.0407,-65.9333 L 74.968,-65.5033 L 74.7498,-65.1897 L 74.3882,-64.9983 L 73.8852,-64.9344 z M 73.696,-66.5111 L 73.3951,-66.4516 L 73.1884,-66.3341 L 73.0686,-66.1556 L 73.0287,-65.913 L 73.0732,-65.6742  L 73.2067,-65.4908 L 73.418,-65.3711 L 73.696,-65.323 z M 72.7988,-63.0789 L 74.231,-63.5631 L 74.3922,-63.6114 L 74.7131,-63.7035 L 74.4751,-63.7747 L 74.2351,-63.854  L 72.7988,-64.3545 L 72.7988,-64.743 L 75,-63.9212 L 75,-63.4878 L 72.7988,-62.6883 z M 72.1336,-61.1481 L 72.1336,-61.5896 L 75,-62.7411 L 75,-62.3443 L 74.1618,-62.0168 L 74.1618,-60.7107  L 75,-60.3812 L 75,-59.9784 z M 73.8587,-61.9008 L 72.9127,-61.5326 L 72.7632,-61.4757 L 72.5954,-61.4187 L 72.4265,-61.3638 L 72.4835,-61.3455  L 72.6762,-61.2824 L 72.9168,-61.1949 L 73.8587,-60.8287 z M 75.2614,-58.4026 L 75,-58.4504 L 75,-58.2714 L 74.5545,-58.2714 L 74.5545,-58.6681 L 74.8963,-58.6681  L 75.0941,-58.6584 L 75.2563,-58.6294 L 75.3977,-58.5801 L 75.533,-58.5094 L 75.533,-58.2592 z M 73.4035,-55.8084 L 73.049,-55.9998 L 72.8309,-56.3098 L 72.7581,-56.7292 L 73.0506,-57.457 L 73.9279,-57.6996  L 73.9767,-57.6996 L 73.9767,-56.129 L 74.3119,-56.1682 L 74.5606,-56.2857 L 74.7147,-56.4784 L 74.7661,-56.7434  L 74.7422,-56.9578 L 74.6705,-57.1248 L 74.5621,-57.2451 L 74.4283,-57.3192 L 74.5199,-57.6406 L 74.9105,-57.3176  L 75.0407,-56.7434 L 74.968,-56.3134 L 74.7498,-55.9998 L 74.3882,-55.8084 L 73.8852,-55.7445 z M 73.696,-57.3212 L 73.3951,-57.2617 L 73.1884,-57.1442 L 73.0686,-56.9657 L 73.0287,-56.7231 L 73.0732,-56.4843  L 73.2067,-56.3009 L 73.418,-56.1812 L 73.696,-56.1331 z M 72.7988,-53.8728 L 72.8176,-53.8748 L 72.8537,-53.8768 L 72.9018,-53.8791 L 72.9565,-53.8819 L 73.0401,-53.8852  L 73.1752,-53.889 L 73.1752,-53.8952 L 72.9806,-54.0312 L 72.8527,-54.1871 L 72.7818,-54.373 L 72.7581,-54.5991  L 72.8031,-54.9126 L 72.9382,-55.129 L 73.1769,-55.2549 L 73.5332,-55.2968 L 75,-55.2968 L 75,-54.9286  L 73.6044,-54.9286 L 73.4112,-54.9179 L 73.2667,-54.8859 L 73.1635,-54.8304 L 73.0938,-54.7496 L 73.0541,-54.6341  L 73.0409,-54.4749 L 73.0862,-54.2385 L 73.222,-54.0579 L 73.4381,-53.9435 L 73.7245,-53.9053 L 75,-53.9053  L 75,-53.5391 L 73.2688,-53.5391 L 72.959,-53.5361 L 72.7988,-53.5269 z M 72.7988,-52.4853 L 73.0984,-52.4975 L 73.2484,-52.5015 L 73.2484,-52.5096 L 73.0104,-52.6037 L 72.8619,-52.711  L 72.7841,-52.8484 L 72.7581,-53.0325 L 72.7632,-53.1062 L 72.7785,-53.181 L 73.1141,-53.181 L 73.0989,-53.0956  L 73.0938,-52.9857 L 73.1429,-52.7848 L 73.2901,-52.6378 L 73.5289,-52.5478 L 73.8526,-52.5178 L 75,-52.5178  L 75,-52.1516 L 73.3115,-52.1516 L 73.0673,-52.1486 L 72.7988,-52.1394 z M 72.7988,-49.816 L 72.7988,-50.1842 L 74.1944,-50.1842 L 74.3876,-50.1949 L 74.5321,-50.2269 L 74.6353,-50.2824  L 74.705,-50.3632 L 74.7447,-50.4787 L 74.7579,-50.6379 L 74.7126,-50.8744 L 74.5768,-51.0549 L 74.3607,-51.1694  L 74.0743,-51.2075 L 72.7988,-51.2075 L 72.7988,-51.5737 L 74.5301,-51.5737 L 74.8398,-51.5768 L 75,-51.5859  L 75,-51.2401 L 74.9812,-51.238 L 74.9451,-51.236 L 74.897,-51.2337 L 74.8423,-51.2309 L 74.7587,-51.2276  L 74.6236,-51.2238 L 74.6236,-51.2177 L 74.8182,-51.0817 L 74.9461,-50.9258 L 75.017,-50.7399 L 75.0407,-50.5138  L 74.9957,-50.2002 L 74.8607,-49.9838 L 74.6219,-49.858 L 74.2656,-49.816 z M 74.8317,-47.5058 L 74.5463,-47.5089 L 71.981,-47.5089 L 71.981,-47.8751 L 72.8415,-47.8751 L 72.9855,-47.873  L 73.1528,-47.8669 L 73.1528,-47.8751 L 72.9712,-47.9933 L 72.8497,-48.1446 L 72.781,-48.3326 L 72.7581,-48.5607  L 72.8283,-48.9225 L 73.0389,-49.174 L 73.3918,-49.3213 L 73.8892,-49.3704 L 74.7528,-49.1679 L 75.0407,-48.5607  L 75.0181,-48.3315 L 74.9502,-48.1446 L 74.8319,-47.9943 L 74.6582,-47.8751 L 74.6582,-47.871 L 74.7378,-47.869  L 74.8505,-47.8629 L 74.9524,-47.8557 L 75,-47.8507 L 75,-47.4967 z M 74.3004,-47.9097 L 74.5636,-48.0134 L 74.7185,-48.195 L 74.7701,-48.463 L 74.719,-48.7013 L 74.5657,-48.8628  L 74.2974,-48.9551 L 73.9014,-48.9858 L 73.5053,-48.9553 L 73.2403,-48.8638 L 73.0908,-48.7036 L 73.0409,-48.4671  L 73.0938,-48.1998 L 73.2525,-48.0165 L 73.5261,-47.9104 L 73.9238,-47.8751 z M 71.981,-45.1997 L 71.981,-45.5659 L 72.7663,-45.5659 L 72.8924,-45.5642 L 73.0226,-45.5588 L 73.1268,-45.553  L 73.1752,-45.5496 L 73.1752,-45.5558 L 72.9883,-45.6857 L 72.8588,-45.8395 L 72.7833,-46.0275 L 72.7581,-46.2597  L 72.8026,-46.5707 L 72.9361,-46.7876 L 73.1744,-46.915 L 73.5332,-46.9574 L 75,-46.9574 L 75,-46.5892  L 73.6044,-46.5892 L 73.4023,-46.5785 L 73.2596,-46.5465 L 73.1617,-46.49 L 73.0938,-46.4061 L 73.0541,-46.2897  L 73.0409,-46.1355 L 73.0857,-45.9029 L 73.2199,-45.7215 L 73.43,-45.6048 L 73.7021,-45.5659 L 75,-45.5659  L 75,-45.1997 z M 74.4202,-43.2669 L 74.5735,-43.3386 L 74.6796,-43.4602 L 74.7414,-43.6351 L 74.762,-43.8671 L 74.7406,-44.1084  L 74.6765,-44.275 L 74.5697,-44.3719 L 74.4202,-44.4042 L 74.3022,-44.3818 L 74.2086,-44.3146 L 74.1344,-44.1977  L 74.0743,-44.0258 L 74.0052,-43.7633 L 73.9246,-43.4935 L 73.8455,-43.3147 L 73.7588,-43.196 L 73.6553,-43.1062  L 73.5307,-43.0498 L 73.3806,-43.0309 L 73.1154,-43.0846 L 72.9219,-43.2456 L 72.8036,-43.5093 L 72.7642,-43.8712  L 72.7963,-44.1979 L 72.8924,-44.4499 L 73.0592,-44.6251 L 73.3033,-44.7215 L 73.344,-44.3919 L 73.2146,-44.3358  L 73.1192,-44.2282 L 73.0605,-44.0723 L 73.0409,-43.8712 L 73.0597,-43.6555 L 73.1162,-43.5049 L 73.2108,-43.4164  L 73.344,-43.3869 L 73.4295,-43.3992 L 73.4986,-43.4358 L 73.5551,-43.4963 L 73.6024,-43.5802 L 73.6532,-43.7287  L 73.7204,-43.983 L 73.7908,-44.2333 L 73.8557,-44.4021 L 73.921,-44.5168 L 73.993,-44.6045 L 74.0741,-44.6704  L 74.1669,-44.7195 L 74.2725,-44.75 L 74.3917,-44.7602 L 74.6674,-44.7014 L 74.8718,-44.5252 L 74.9985,-44.2432  L 75.0407,-43.8671 L 75.0069,-43.5032 L 74.9054,-43.2333 L 74.7322,-43.0495 L 74.4833,-42.9435 z M 74.0835,-40.7434 L 73.8607,-40.912 L 73.7204,-41.2057 L 73.6654,-41.6373 L 73.6573,-42.1316 L 73.5373,-42.1316  L 73.3069,-42.1031 L 73.1528,-42.0177 L 73.0658,-41.8712 L 73.0368,-41.6596 L 73.0577,-41.4471 L 73.1203,-41.3016  L 73.2286,-41.2121 L 73.3868,-41.1673 L 73.3522,-40.7849 L 72.9066,-41.0524 L 72.7581,-41.6678 L 72.8057,-42.0314  L 72.9484,-42.2923 L 73.181,-42.4495 L 73.4986,-42.5019 L 74.4467,-42.5019 L 74.5893,-42.5125 L 74.6918,-42.5446  L 74.7536,-42.6066 L 74.7742,-42.7074 L 74.7706,-42.7638 L 74.7599,-42.8274 L 74.9878,-42.8274 L 75.0122,-42.6875  L 75.0203,-42.5446 L 74.9936,-42.3689 L 74.9135,-42.2486 L 74.7765,-42.1761 L 74.5789,-42.1438 L 74.5789,-42.1316  L 74.7943,-41.9798 L 74.9359,-41.8051 L 75.0145,-41.5989 L 75.0407,-41.3524 L 74.9969,-41.062 L 74.8657,-40.854  L 74.6582,-40.7289 L 74.3856,-40.6872 z M 74.5504,-41.0877 L 74.6684,-41.1602 L 74.7416,-41.2774 L 74.7661,-41.4359 L 74.7432,-41.6261 L 74.6745,-41.7939  L 74.5659,-41.934 L 74.4232,-42.0411 L 74.2613,-42.109 L 74.0947,-42.1316 L 73.9136,-42.1316 L 73.9218,-41.7309  L 73.937,-41.5038 L 73.9747,-41.3392 L 74.0367,-41.2215 L 74.1252,-41.1348 L 74.2427,-41.0814 L 74.3917,-41.0636  z M 72.1336,-37.1553 L 73.9543,-37.67 L 74.3012,-37.758 L 74.6582,-37.8388 L 74.4243,-37.8915 L 74.17,-37.9518  L 73.5286,-38.1249 L 72.1336,-38.5163 L 72.1336,-38.8886 L 73.9177,-39.387 L 74.3215,-39.4887 L 74.6582,-39.566  L 74.587,-39.5843 L 74.3747,-39.6342 L 74.2056,-39.6739 L 73.6138,-39.8341 L 72.1336,-40.2455 L 72.1336,-40.6504  L 75,-39.8061 L 75,-39.3422 L 73.1792,-38.8458 L 72.9407,-38.7858 L 72.5669,-38.7034 L 72.7835,-38.6546  L 72.9616,-38.6139 L 73.5505,-38.4568 L 75,-38.0586 L 75,-37.5947 L 72.1336,-36.7504 z M 72.1336,-32.9073 L 72.1336,-33.3589 L 74.5911,-34.9091 L 74.2473,-34.8908 L 74.0133,-34.8846 L 72.1336,-34.8846  L 72.1336,-35.2346 L 75,-35.2346 L 75,-34.7667 L 72.5588,-33.2328 L 72.7561,-33.2429 L 73.0958,-33.2531  L 75,-33.2531 L 75,-32.9073 z M 72.9198,-29.3136 L 72.4591,-29.4944 L 72.1829,-29.8054 L 72.0908,-30.2562 L 72.1839,-30.6964 L 72.4631,-31.0038  L 72.9249,-31.1847 L 73.5658,-31.2449 L 74.199,-31.1816 L 74.6623,-30.9916 L 74.9461,-30.6781 L 75.0407,-30.244  L 74.9466,-29.8112 L 74.6643,-29.5015 L 74.2015,-29.3153 L 73.5658,-29.2533 z M 74.0942,-29.6609 L 74.4589,-29.7731 L 74.6709,-29.9666 L 74.7416,-30.2481 L 74.6694,-30.5283 L 74.4528,-30.7221  L 74.0866,-30.835 L 73.5658,-30.8727 L 73.0307,-30.8368 L 72.6666,-30.7292 L 72.4575,-30.5393 L 72.3879,-30.2562  L 72.4565,-29.9661 L 72.6625,-29.771 L 73.0256,-29.6604 L 73.5658,-29.6236 z M 72.9198,-26.9963 L 72.4591,-27.1771 L 72.1829,-27.4881 L 72.0908,-27.939 L 72.1839,-28.3791 L 72.4631,-28.6866  L 72.9249,-28.8674 L 73.5658,-28.9276 L 74.199,-28.8643 L 74.6623,-28.6744 L 74.9461,-28.3608 L 75.0407,-27.9267  L 74.9466,-27.4939 L 74.6643,-27.1842 L 74.2015,-26.998 L 73.5658,-26.936 z M 74.0942,-27.3436 L 74.4589,-27.4558 L 74.6709,-27.6493 L 74.7416,-27.9308 L 74.6694,-28.2111 L 74.4528,-28.4048  L 74.0866,-28.5177 L 73.5658,-28.5554 L 73.0307,-28.5195 L 72.6666,-28.4119 L 72.4575,-28.222 L 72.3879,-27.939  L 72.4565,-27.6488 L 72.6625,-27.4537 L 73.0256,-27.3431 L 73.5658,-27.3063 z M 72.6536,-24.7143 L 72.3482,-24.9035 L 72.1552,-25.2051 L 72.0908,-25.6054 L 72.1793,-26.0255 L 72.4448,-26.3296  L 72.8878,-26.5142 L 73.5088,-26.5758 L 74.1618,-26.5084 L 74.644,-26.3062 L 74.9415,-25.9794 L 75.0407,-25.5382  L 75.0053,-25.2359 L 74.8993,-25.0002 L 74.7144,-24.8265 L 74.4426,-24.7103 L 74.3876,-25.0602 L 74.6562,-25.2361  L 74.7457,-25.5444 L 74.6725,-25.8241 L 74.4527,-26.0326 L 74.0972,-26.1643 L 73.6166,-26.2137 L 73.7817,-26.1033  L 73.9106,-25.935 L 73.9937,-25.728 L 74.0215,-25.5016 L 73.9553,-25.1537 L 73.757,-24.8832 L 73.4493,-24.7092  L 73.0551,-24.6513 z M 73.3356,-25.0617 L 73.5505,-25.1761 L 73.6871,-25.3557 L 73.7326,-25.5891 L 73.7145,-25.7422 L 73.6604,-25.8841  L 73.5731,-26.0059 L 73.4559,-26.0987 L 73.3145,-26.1574 L 73.1548,-26.177 L 72.8428,-26.1374 L 72.5984,-26.0184  L 72.4405,-25.8327 L 72.3879,-25.5932 L 72.4329,-25.3567 L 72.5679,-25.1761 L 72.7797,-25.0617 L 73.0551,-25.0236  z M 72.1336,-22.3523 L 72.1336,-24.2463 L 72.4306,-24.2463 L 73.0292,-23.8714 L 73.4824,-23.6258 L 73.8602,-23.4674  L 74.2331,-23.3542 L 74.6099,-23.2863 L 75,-23.2637 L 75,-22.8812 L 74.4362,-22.9395 L 73.8435,-23.1142  L 73.1902,-23.4252 L 72.4448,-23.8923 L 72.4448,-22.3523 z M 72.7988,-19.8864 L 72.7988,-20.155 L 72.3065,-20.2628 L 72.3065,-20.5069 L 72.7988,-20.5069 L 72.7988,-20.9138  L 73.0653,-20.9138 L 73.0653,-20.5069 L 74.4548,-20.5069 L 74.5898,-20.5199 L 74.6776,-20.5588 L 74.7256,-20.6298  L 74.7416,-20.7389 L 74.7345,-20.8284 L 74.7131,-20.9504 L 74.9837,-20.9504 L 75.0203,-20.7673 L 75.0326,-20.5802  L 74.9079,-20.2506 L 74.5341,-20.1408 L 73.0653,-20.1408 L 73.0653,-19.8864 z M 74.4202,-18.1795 L 74.5735,-18.2512 L 74.6796,-18.3727 L 74.7414,-18.5477 L 74.762,-18.7796 L 74.7406,-19.0209  L 74.6765,-19.1875 L 74.5697,-19.2844 L 74.4202,-19.3167 L 74.3022,-19.2943 L 74.2086,-19.2272 L 74.1344,-19.1102  L 74.0743,-18.9383 L 74.0052,-18.6759 L 73.9246,-18.406 L 73.8455,-18.2273 L 73.7588,-18.1085 L 73.6553,-18.0187  L 73.5307,-17.9623 L 73.3806,-17.9435 L 73.1154,-17.9971 L 72.9219,-18.1581 L 72.8036,-18.4218 L 72.7642,-18.7837  L 72.7963,-19.1104 L 72.8924,-19.3624 L 73.0592,-19.5377 L 73.3033,-19.634 L 73.344,-19.3045 L 73.2146,-19.2483  L 73.1192,-19.1407 L 73.0605,-18.9848 L 73.0409,-18.7837 L 73.0597,-18.568 L 73.1162,-18.4175 L 73.2108,-18.329  L 73.344,-18.2995 L 73.4295,-18.3117 L 73.4986,-18.3483 L 73.5551,-18.4088 L 73.6024,-18.4927 L 73.6532,-18.6413  L 73.7204,-18.8956 L 73.7908,-19.1458 L 73.8557,-19.3147 L 73.921,-19.4293 L 73.993,-19.5171 L 74.0741,-19.5829  L 74.1669,-19.632 L 74.2725,-19.6625 L 74.3917,-19.6727 L 74.6674,-19.614 L 74.8718,-19.4377 L 74.9985,-19.1557  L 75.0407,-18.7796 L 75.0069,-18.4157 L 74.9054,-18.1459 L 74.7322,-17.962 L 74.4833,-17.856 z M 73.3962,-15.6488 L 73.0419,-15.8022 L 72.8336,-16.0598 L 72.7642,-16.4237 L 72.7909,-16.6421 L 72.871,-16.8295  L 73.0005,-16.9819 L 73.1752,-17.095 L 73.1752,-17.0991 L 73.0918,-17.1011 L 72.9636,-17.1072 L 72.8471,-17.1153  L 72.7988,-17.1235 L 72.7988,-17.4714 L 72.9677,-17.4622 L 73.2545,-17.4591 L 74.9369,-17.4591 L 75.6327,-17.2288  L 75.8646,-16.5376 L 75.8293,-16.2141 L 75.7232,-15.9639 L 75.5521,-15.7884 L 75.3214,-15.6892 L 75.2685,-16.0575  L 75.4036,-16.1162 L 75.5035,-16.2192 L 75.5653,-16.3639 L 75.5859,-16.5478 L 75.4257,-16.9582 L 74.9451,-17.095  L 74.5911,-17.095 L 74.5911,-17.0909 L 74.7765,-16.9679 L 74.9095,-16.8061 L 74.9896,-16.6098 L 75.0163,-16.383  L 74.9492,-16.0318 L 74.7478,-15.7879 L 74.4024,-15.6453 L 73.9035,-15.5977 z M 74.2875,-16.0061 L 74.5484,-16.0961 L 74.6964,-16.2589 L 74.7457,-16.5071 L 74.7203,-16.6703 L 74.644,-16.8142  L 74.5201,-16.9333 L 74.3521,-17.0218 L 74.1438,-17.0767 L 73.8994,-17.095 L 73.6494,-17.0767 L 73.4366,-17.0218  L 73.2652,-16.9335 L 73.1396,-16.8153 L 73.0625,-16.6731 L 73.0368,-16.5132 L 73.0877,-16.2706 L 73.2403,-16.1043  L 73.5068,-16.0081 L 73.8994,-15.9761 z M 72.7988,-13.728 L 72.8176,-13.73 L 72.8537,-13.732 L 72.9018,-13.7343 L 72.9565,-13.7371 L 73.0401,-13.7404  L 73.1752,-13.7442 L 73.1752,-13.7504 L 72.9806,-13.8864 L 72.8527,-14.0423 L 72.7818,-14.2282 L 72.7581,-14.4543  L 72.8031,-14.7678 L 72.9382,-14.9842 L 73.1769,-15.1101 L 73.5332,-15.152 L 75,-15.152 L 75,-14.7838  L 73.6044,-14.7838 L 73.4112,-14.7731 L 73.2667,-14.7411 L 73.1635,-14.6856 L 73.0938,-14.6048 L 73.0541,-14.4893  L 73.0409,-14.3301 L 73.0862,-14.0937 L 73.222,-13.9131 L 73.4381,-13.7987 L 73.7245,-13.7605 L 75,-13.7605  L 75,-13.3943 L 73.2688,-13.3943 L 72.959,-13.3913 L 72.7988,-13.3821 z M 72.1336,-11.5042 L 72.1336,-11.9457 L 75,-13.0971 L 75,-12.7004 L 74.1618,-12.3729 L 74.1618,-11.0668  L 75,-10.7373 L 75,-10.3345 z M 73.8587,-12.2569 L 72.9127,-11.8887 L 72.7632,-11.8318 L 72.5954,-11.7748 L 72.4265,-11.7199 L 72.4835,-11.7015  L 72.6762,-11.6385 L 72.9168,-11.551 L 73.8587,-11.1848 z M 72.1336,-7.65908 L 72.1336,-8.60708 L 72.2249,-9.25223 L 72.4988,-9.73106 L 72.941,-10.0278 L 73.5373,-10.1268  L 73.9531,-10.0835 L 74.3134,-9.95384 L 74.6071,-9.74481 L 74.823,-9.46355 L 74.9558,-9.12177 L 75,-8.73119  L 75,-7.65908 z M 74.6887,-8.68643 L 74.6542,-8.98269 L 74.5504,-9.2408 L 74.3816,-9.45212 L 74.1517,-9.608 L 73.8679,-9.70412  L 73.5373,-9.73616 L 73.0676,-9.66318 L 72.7246,-9.44423 L 72.5147,-9.08695 L 72.4448,-8.59895 L 72.4448,-8.04764  L 74.6887,-8.04764 z M 74.229,-5.53709 L 74.6104,-5.72984 L 74.7376,-6.16163 L 74.7035,-6.40854 L 74.6013,-6.59594 L 74.4319,-6.7142  L 74.1964,-6.75362 L 73.9882,-6.70861 L 73.8313,-6.57359 L 73.7328,-6.35363 L 73.7,-6.05381 L 73.7,-5.8463  L 73.3827,-5.8463 L 73.3827,-6.04568 L 73.3499,-6.31293 L 73.2515,-6.51254 L 73.0951,-6.6369 L 72.8883,-6.67835  L 72.6826,-6.64452 L 72.5252,-6.54305 L 72.4252,-6.37498 L 72.3919,-6.14129 L 72.4229,-5.92234 L 72.516,-5.74967  L 72.6655,-5.63143 L 72.8659,-5.57573 L 72.8375,-5.20751 L 72.5242,-5.30083 L 72.2882,-5.49944 L 72.1402,-5.78654  L 72.0908,-6.14534 L 72.1409,-6.52858 L 72.2912,-6.81569 L 72.531,-6.99497 L 72.8497,-7.05473 L 73.0986,-7.01633  L 73.2962,-6.90113 L 73.4404,-6.71269 L 73.5292,-6.45458 L 73.5373,-6.45458 L 73.6085,-6.7404 L 73.7529,-6.95501  L 73.9574,-7.08929 L 74.2086,-7.13405 L 74.5606,-7.07098 L 74.823,-6.88178 L 74.9863,-6.57562 L 75.0407,-6.16163  L 74.9916,-5.77027 L 74.8444,-5.46689 L 74.601,-5.26014 L 74.2636,-5.15867 z "
     stroke="black"
     fill="lightgray"
     stroke-width="0.5"
     id="path4"
     style="fill:none" />
</svg>
