solid OpenSCAD_Model
  facet normal 1 -0 0
    outer loop
      vertex 80 13 8.25
      vertex 80 75 0
      vertex 80 75 8.25
    endloop
  endfacet
  facet normal 1 0 0
    outer loop
      vertex 80 75 0
      vertex 80 13 8.25
      vertex 80 13 0
    endloop
  endfacet
  facet normal 1 -0 0
    outer loop
      vertex 80 -75 8.25
      vertex 80 -13 0
      vertex 80 -13 8.25
    endloop
  endfacet
  facet normal 1 0 0
    outer loop
      vertex 80 -13 0
      vertex 80 -75 8.25
      vertex 80 -75 0
    endloop
  endfacet
  facet normal 0 0 1
    outer loop
      vertex 72.0783 68.6991 8.25
      vertex 80 75 8.25
      vertex 72.3134 69.0132 8.25
    endloop
  endfacet
  facet normal 0 0 1
    outer loop
      vertex 73.75 -22 8.25
      vertex 72.722 -70.1086 8.25
      vertex 72.75 -70.5 8.25
    endloop
  endfacet
  facet normal 0 0 1
    outer loop
      vertex 80 75 8.25
      vertex 72.0783 68.6991 8.25
      vertex 76.25 22 8.25
    endloop
  endfacet
  facet normal 0 0 1
    outer loop
      vertex 73.75 -22 8.25
      vertex 72.6386 -69.7252 8.25
      vertex 72.722 -70.1086 8.25
    endloop
  endfacet
  facet normal -0 0 1
    outer loop
      vertex 71.8009 68.4217 8.25
      vertex 76.25 22 8.25
      vertex 72.0783 68.6991 8.25
    endloop
  endfacet
  facet normal 0 0 1
    outer loop
      vertex 73.75 -22 8.25
      vertex 72.5015 -69.3576 8.25
      vertex 72.6386 -69.7252 8.25
    endloop
  endfacet
  facet normal -0 0 1
    outer loop
      vertex 71.4868 68.1866 8.25
      vertex 76.25 22 8.25
      vertex 71.8009 68.4217 8.25
    endloop
  endfacet
  facet normal 0 0 1
    outer loop
      vertex 73.75 -22 8.25
      vertex 72.3134 -69.0132 8.25
      vertex 72.5015 -69.3576 8.25
    endloop
  endfacet
  facet normal -0 0 1
    outer loop
      vertex 71.1424 67.9985 8.25
      vertex 76.25 22 8.25
      vertex 71.4868 68.1866 8.25
    endloop
  endfacet
  facet normal 0 0 1
    outer loop
      vertex 73.75 -22 8.25
      vertex 72.0783 -68.6991 8.25
      vertex 72.3134 -69.0132 8.25
    endloop
  endfacet
  facet normal -0 0 1
    outer loop
      vertex 70.7748 67.8614 8.25
      vertex 76.25 22 8.25
      vertex 71.1424 67.9985 8.25
    endloop
  endfacet
  facet normal 0 0 1
    outer loop
      vertex 73.75 -22 8.25
      vertex 71.8009 -68.4217 8.25
      vertex 72.0783 -68.6991 8.25
    endloop
  endfacet
  facet normal -0 0 1
    outer loop
      vertex 70.3914 67.778 8.25
      vertex 76.25 22 8.25
      vertex 70.7748 67.8614 8.25
    endloop
  endfacet
  facet normal 0 0 1
    outer loop
      vertex 73.75 -22 8.25
      vertex 71.4868 -68.1866 8.25
      vertex 71.8009 -68.4217 8.25
    endloop
  endfacet
  facet normal 0 0 1
    outer loop
      vertex 76.25 22 8.25
      vertex 70.3914 67.778 8.25
      vertex 73.75 22 8.25
    endloop
  endfacet
  facet normal 0 0 1
    outer loop
      vertex 73.75 -22 8.25
      vertex 71.1424 -67.9985 8.25
      vertex 71.4868 -68.1866 8.25
    endloop
  endfacet
  facet normal -0 0 1
    outer loop
      vertex 70 67.75 8.25
      vertex 73.75 22 8.25
      vertex 70.3914 67.778 8.25
    endloop
  endfacet
  facet normal 0 0 1
    outer loop
      vertex 73.75 -22 8.25
      vertex 70.7748 -67.8614 8.25
      vertex 71.1424 -67.9985 8.25
    endloop
  endfacet
  facet normal 0 0 1
    outer loop
      vertex 69.6086 67.778 8.25
      vertex 73.75 22 8.25
      vertex 70 67.75 8.25
    endloop
  endfacet
  facet normal 0 0 1
    outer loop
      vertex 73.75 -22 8.25
      vertex 70.3914 -67.778 8.25
      vertex 70.7748 -67.8614 8.25
    endloop
  endfacet
  facet normal 0 0 1
    outer loop
      vertex 69.2252 67.8614 8.25
      vertex 73.75 22 8.25
      vertex 69.6086 67.778 8.25
    endloop
  endfacet
  facet normal 0 0 1
    outer loop
      vertex 73.75 -22 8.25
      vertex 70 -67.75 8.25
      vertex 70.3914 -67.778 8.25
    endloop
  endfacet
  facet normal 0 0 1
    outer loop
      vertex 68.8576 67.9985 8.25
      vertex 73.75 22 8.25
      vertex 69.2252 67.8614 8.25
    endloop
  endfacet
  facet normal 0 0 1
    outer loop
      vertex 73.75 -22 8.25
      vertex 69.6086 -67.778 8.25
      vertex 70 -67.75 8.25
    endloop
  endfacet
  facet normal 0 0 1
    outer loop
      vertex 68.5132 68.1866 8.25
      vertex 73.75 22 8.25
      vertex 68.8576 67.9985 8.25
    endloop
  endfacet
  facet normal 0 0 1
    outer loop
      vertex 73.75 -22 8.25
      vertex 69.2252 -67.8614 8.25
      vertex 69.6086 -67.778 8.25
    endloop
  endfacet
  facet normal 0 0 1
    outer loop
      vertex 68.1991 68.4217 8.25
      vertex 73.75 22 8.25
      vertex 68.5132 68.1866 8.25
    endloop
  endfacet
  facet normal 0 0 1
    outer loop
      vertex 73.75 -22 8.25
      vertex 68.8576 -67.9985 8.25
      vertex 69.2252 -67.8614 8.25
    endloop
  endfacet
  facet normal 0 0 1
    outer loop
      vertex 67.9217 68.6991 8.25
      vertex 73.75 22 8.25
      vertex 68.1991 68.4217 8.25
    endloop
  endfacet
  facet normal 0 0 1
    outer loop
      vertex 73.75 -22 8.25
      vertex 68.5132 -68.1866 8.25
      vertex 68.8576 -67.9985 8.25
    endloop
  endfacet
  facet normal 0 0 1
    outer loop
      vertex 73.75 22 8.25
      vertex 60 75 8.25
      vertex 73.75 -22 8.25
    endloop
  endfacet
  facet normal 0 0 1
    outer loop
      vertex 73.75 -22 8.25
      vertex 68.1991 -68.4217 8.25
      vertex 68.5132 -68.1866 8.25
    endloop
  endfacet
  facet normal 0 0 1
    outer loop
      vertex 73.75 22 8.25
      vertex 67.9217 68.6991 8.25
      vertex 60 75 8.25
    endloop
  endfacet
  facet normal 0 0 1
    outer loop
      vertex 60 -75 8.25
      vertex 73.75 -22 8.25
      vertex 60 75 8.25
    endloop
  endfacet
  facet normal 0 0 1
    outer loop
      vertex 60 75 8.25
      vertex 67.9217 68.6991 8.25
      vertex 67.6866 69.0132 8.25
    endloop
  endfacet
  facet normal 0 -0 1
    outer loop
      vertex 67.9217 -68.6991 8.25
      vertex 73.75 -22 8.25
      vertex 60 -75 8.25
    endloop
  endfacet
  facet normal 0 0 1
    outer loop
      vertex 60 75 8.25
      vertex 67.6866 69.0132 8.25
      vertex 67.4985 69.3576 8.25
    endloop
  endfacet
  facet normal 0 0 1
    outer loop
      vertex 73.75 -22 8.25
      vertex 67.9217 -68.6991 8.25
      vertex 68.1991 -68.4217 8.25
    endloop
  endfacet
  facet normal 0 0 1
    outer loop
      vertex 60 75 8.25
      vertex 67.4985 69.3576 8.25
      vertex 67.3614 69.7252 8.25
    endloop
  endfacet
  facet normal 0 0 1
    outer loop
      vertex 67.9217 -68.6991 8.25
      vertex 60 -75 8.25
      vertex 67.6866 -69.0132 8.25
    endloop
  endfacet
  facet normal 0 0 1
    outer loop
      vertex 60 75 8.25
      vertex 67.3614 69.7252 8.25
      vertex 67.278 70.1086 8.25
    endloop
  endfacet
  facet normal 0 0 1
    outer loop
      vertex 67.6866 -69.0132 8.25
      vertex 60 -75 8.25
      vertex 67.4985 -69.3576 8.25
    endloop
  endfacet
  facet normal 0 0 1
    outer loop
      vertex 60 75 8.25
      vertex 67.278 70.1086 8.25
      vertex 67.25 70.5 8.25
    endloop
  endfacet
  facet normal 0 0 1
    outer loop
      vertex 67.4985 -69.3576 8.25
      vertex 60 -75 8.25
      vertex 67.3614 -69.7252 8.25
    endloop
  endfacet
  facet normal 0 0 1
    outer loop
      vertex 80 75 8.25
      vertex 76.25 22 8.25
      vertex 80 13 8.25
    endloop
  endfacet
  facet normal 0 0 1
    outer loop
      vertex 72.722 70.1086 8.25
      vertex 80 75 8.25
      vertex 72.75 70.5 8.25
    endloop
  endfacet
  facet normal 0 0 1
    outer loop
      vertex 72.5015 69.3576 8.25
      vertex 80 75 8.25
      vertex 72.6386 69.7252 8.25
    endloop
  endfacet
  facet normal 0 0 1
    outer loop
      vertex 72.6386 69.7252 8.25
      vertex 80 75 8.25
      vertex 72.722 70.1086 8.25
    endloop
  endfacet
  facet normal 0 0 1
    outer loop
      vertex 80 75 8.25
      vertex 72.722 70.8914 8.25
      vertex 72.75 70.5 8.25
    endloop
  endfacet
  facet normal 0 0 1
    outer loop
      vertex 80 75 8.25
      vertex 72.6386 71.2748 8.25
      vertex 72.722 70.8914 8.25
    endloop
  endfacet
  facet normal 0 0 1
    outer loop
      vertex 80 75 8.25
      vertex 72.5015 71.6424 8.25
      vertex 72.6386 71.2748 8.25
    endloop
  endfacet
  facet normal 0 0 1
    outer loop
      vertex 80 75 8.25
      vertex 72.3134 71.9868 8.25
      vertex 72.5015 71.6424 8.25
    endloop
  endfacet
  facet normal 0 0 1
    outer loop
      vertex 80 75 8.25
      vertex 72.0783 72.3009 8.25
      vertex 72.3134 71.9868 8.25
    endloop
  endfacet
  facet normal 0 0 1
    outer loop
      vertex 80 75 8.25
      vertex 71.8009 72.5783 8.25
      vertex 72.0783 72.3009 8.25
    endloop
  endfacet
  facet normal 0 0 1
    outer loop
      vertex 80 75 8.25
      vertex 71.4868 72.8134 8.25
      vertex 71.8009 72.5783 8.25
    endloop
  endfacet
  facet normal 0 0 1
    outer loop
      vertex 80 75 8.25
      vertex 71.1424 73.0015 8.25
      vertex 71.4868 72.8134 8.25
    endloop
  endfacet
  facet normal 0 0 1
    outer loop
      vertex 80 75 8.25
      vertex 70.7748 73.1386 8.25
      vertex 71.1424 73.0015 8.25
    endloop
  endfacet
  facet normal 0 0 1
    outer loop
      vertex 80 75 8.25
      vertex 70.3914 73.222 8.25
      vertex 70.7748 73.1386 8.25
    endloop
  endfacet
  facet normal 0 0 1
    outer loop
      vertex 80 75 8.25
      vertex 70 73.25 8.25
      vertex 70.3914 73.222 8.25
    endloop
  endfacet
  facet normal -0 0 1
    outer loop
      vertex 60 75 8.25
      vertex 70 73.25 8.25
      vertex 80 75 8.25
    endloop
  endfacet
  facet normal 0 0 1
    outer loop
      vertex 67.3614 -69.7252 8.25
      vertex 60 -75 8.25
      vertex 67.278 -70.1086 8.25
    endloop
  endfacet
  facet normal 0 0 1
    outer loop
      vertex 67.278 70.8914 8.25
      vertex 60 75 8.25
      vertex 67.25 70.5 8.25
    endloop
  endfacet
  facet normal 0 0 1
    outer loop
      vertex 67.3614 71.2748 8.25
      vertex 60 75 8.25
      vertex 67.278 70.8914 8.25
    endloop
  endfacet
  facet normal 0 0 1
    outer loop
      vertex 67.4985 71.6424 8.25
      vertex 60 75 8.25
      vertex 67.3614 71.2748 8.25
    endloop
  endfacet
  facet normal 0 0 1
    outer loop
      vertex 67.6866 71.9868 8.25
      vertex 60 75 8.25
      vertex 67.4985 71.6424 8.25
    endloop
  endfacet
  facet normal 0 0 1
    outer loop
      vertex 67.9217 72.3009 8.25
      vertex 60 75 8.25
      vertex 67.6866 71.9868 8.25
    endloop
  endfacet
  facet normal 0 0 1
    outer loop
      vertex 68.1991 72.5783 8.25
      vertex 60 75 8.25
      vertex 67.9217 72.3009 8.25
    endloop
  endfacet
  facet normal 0 0 1
    outer loop
      vertex 68.5132 72.8134 8.25
      vertex 60 75 8.25
      vertex 68.1991 72.5783 8.25
    endloop
  endfacet
  facet normal 0 0 1
    outer loop
      vertex 68.8576 73.0015 8.25
      vertex 60 75 8.25
      vertex 68.5132 72.8134 8.25
    endloop
  endfacet
  facet normal 0 0 1
    outer loop
      vertex 69.2252 73.1386 8.25
      vertex 60 75 8.25
      vertex 68.8576 73.0015 8.25
    endloop
  endfacet
  facet normal 0 0 1
    outer loop
      vertex 69.6086 73.222 8.25
      vertex 60 75 8.25
      vertex 69.2252 73.1386 8.25
    endloop
  endfacet
  facet normal 0 0 1
    outer loop
      vertex 70 73.25 8.25
      vertex 60 75 8.25
      vertex 69.6086 73.222 8.25
    endloop
  endfacet
  facet normal 0 0 1
    outer loop
      vertex 80 13 8.25
      vertex 76.25 22 8.25
      vertex 76.25 13 8.25
    endloop
  endfacet
  facet normal 0 0 1
    outer loop
      vertex 76.25 -22 8.25
      vertex 80 -13 8.25
      vertex 76.25 -13 8.25
    endloop
  endfacet
  facet normal 0 0 1
    outer loop
      vertex 80 -13 8.25
      vertex 76.25 -22 8.25
      vertex 80 -75 8.25
    endloop
  endfacet
  facet normal 0 0 1
    outer loop
      vertex 72.75 -70.5 8.25
      vertex 76.25 -22 8.25
      vertex 73.75 -22 8.25
    endloop
  endfacet
  facet normal 0 0 1
    outer loop
      vertex 72.3134 69.0132 8.25
      vertex 80 75 8.25
      vertex 72.5015 69.3576 8.25
    endloop
  endfacet
  facet normal 0 0 1
    outer loop
      vertex 76.25 -22 8.25
      vertex 72.75 -70.5 8.25
      vertex 80 -75 8.25
    endloop
  endfacet
  facet normal -0 0 1
    outer loop
      vertex 72.722 -70.8914 8.25
      vertex 80 -75 8.25
      vertex 72.75 -70.5 8.25
    endloop
  endfacet
  facet normal -0 0 1
    outer loop
      vertex 72.6386 -71.2748 8.25
      vertex 80 -75 8.25
      vertex 72.722 -70.8914 8.25
    endloop
  endfacet
  facet normal -0 0 1
    outer loop
      vertex 72.5015 -71.6424 8.25
      vertex 80 -75 8.25
      vertex 72.6386 -71.2748 8.25
    endloop
  endfacet
  facet normal -0 0 1
    outer loop
      vertex 72.3134 -71.9868 8.25
      vertex 80 -75 8.25
      vertex 72.5015 -71.6424 8.25
    endloop
  endfacet
  facet normal -0 0 1
    outer loop
      vertex 72.0783 -72.3009 8.25
      vertex 80 -75 8.25
      vertex 72.3134 -71.9868 8.25
    endloop
  endfacet
  facet normal -0 0 1
    outer loop
      vertex 71.8009 -72.5783 8.25
      vertex 80 -75 8.25
      vertex 72.0783 -72.3009 8.25
    endloop
  endfacet
  facet normal -0 0 1
    outer loop
      vertex 71.4868 -72.8134 8.25
      vertex 80 -75 8.25
      vertex 71.8009 -72.5783 8.25
    endloop
  endfacet
  facet normal -0 0 1
    outer loop
      vertex 71.1424 -73.0015 8.25
      vertex 80 -75 8.25
      vertex 71.4868 -72.8134 8.25
    endloop
  endfacet
  facet normal -0 0 1
    outer loop
      vertex 70.7748 -73.1386 8.25
      vertex 80 -75 8.25
      vertex 71.1424 -73.0015 8.25
    endloop
  endfacet
  facet normal -0 0 1
    outer loop
      vertex 70.3914 -73.222 8.25
      vertex 80 -75 8.25
      vertex 70.7748 -73.1386 8.25
    endloop
  endfacet
  facet normal -0 0 1
    outer loop
      vertex 70 -73.25 8.25
      vertex 80 -75 8.25
      vertex 70.3914 -73.222 8.25
    endloop
  endfacet
  facet normal 0 0 1
    outer loop
      vertex 60 -75 8.25
      vertex 70 -73.25 8.25
      vertex 69.6086 -73.222 8.25
    endloop
  endfacet
  facet normal 0 0 1
    outer loop
      vertex 70 -73.25 8.25
      vertex 60 -75 8.25
      vertex 80 -75 8.25
    endloop
  endfacet
  facet normal 0 0 1
    outer loop
      vertex 69.2252 -73.1386 8.25
      vertex 60 -75 8.25
      vertex 69.6086 -73.222 8.25
    endloop
  endfacet
  facet normal 0 0 1
    outer loop
      vertex 68.8576 -73.0015 8.25
      vertex 60 -75 8.25
      vertex 69.2252 -73.1386 8.25
    endloop
  endfacet
  facet normal 0 0 1
    outer loop
      vertex 68.5132 -72.8134 8.25
      vertex 60 -75 8.25
      vertex 68.8576 -73.0015 8.25
    endloop
  endfacet
  facet normal 0 0 1
    outer loop
      vertex 68.1991 -72.5783 8.25
      vertex 60 -75 8.25
      vertex 68.5132 -72.8134 8.25
    endloop
  endfacet
  facet normal 0 0 1
    outer loop
      vertex 67.9217 -72.3009 8.25
      vertex 60 -75 8.25
      vertex 68.1991 -72.5783 8.25
    endloop
  endfacet
  facet normal 0 0 1
    outer loop
      vertex 67.6866 -71.9868 8.25
      vertex 60 -75 8.25
      vertex 67.9217 -72.3009 8.25
    endloop
  endfacet
  facet normal 0 0 1
    outer loop
      vertex 67.4985 -71.6424 8.25
      vertex 60 -75 8.25
      vertex 67.6866 -71.9868 8.25
    endloop
  endfacet
  facet normal 0 0 1
    outer loop
      vertex 67.3614 -71.2748 8.25
      vertex 60 -75 8.25
      vertex 67.4985 -71.6424 8.25
    endloop
  endfacet
  facet normal 0 0 1
    outer loop
      vertex 67.278 -70.8914 8.25
      vertex 60 -75 8.25
      vertex 67.3614 -71.2748 8.25
    endloop
  endfacet
  facet normal 0 0 1
    outer loop
      vertex 67.25 -70.5 8.25
      vertex 60 -75 8.25
      vertex 67.278 -70.8914 8.25
    endloop
  endfacet
  facet normal 0 0 1
    outer loop
      vertex 67.278 -70.1086 8.25
      vertex 60 -75 8.25
      vertex 67.25 -70.5 8.25
    endloop
  endfacet
  facet normal 0 0 -1
    outer loop
      vertex 56.25 -74.25 0
      vertex 52.5 -74.25 0
      vertex 56.25 -69.625 0
    endloop
  endfacet
  facet normal -0 0 -1
    outer loop
      vertex 67.325 -65.8668 0
      vertex 60 -66.875 0
      vertex 73.75 -22 0
    endloop
  endfacet
  facet normal 0 0 -1
    outer loop
      vertex 60 -75 0
      vertex 64.65 -70.5 0
      vertex 67.2481 -75 0
    endloop
  endfacet
  facet normal 0 0 -1
    outer loop
      vertex 80 -75 0
      vertex 76.25 -22 0
      vertex 80 -13 0
    endloop
  endfacet
  facet normal 0 0 -1
    outer loop
      vertex 72.675 -65.8668 0
      vertex 80 -75 0
      vertex 75.35 -70.5 0
    endloop
  endfacet
  facet normal 0 -0 -1
    outer loop
      vertex 75.35 -70.5 0
      vertex 80 -75 0
      vertex 72.7519 -75 0
    endloop
  endfacet
  facet normal -0 0 -1
    outer loop
      vertex 80 -13 0
      vertex 76.25 -22 0
      vertex 76.25 -13 0
    endloop
  endfacet
  facet normal 0 0 -1
    outer loop
      vertex 80 -75 0
      vertex 72.675 -65.8668 0
      vertex 76.25 -22 0
    endloop
  endfacet
  facet normal 0 0 -1
    outer loop
      vertex 67.325 -65.8668 0
      vertex 73.75 -22 0
      vertex 72.675 -65.8668 0
    endloop
  endfacet
  facet normal -0 0 -1
    outer loop
      vertex 76.25 -22 0
      vertex 72.675 -65.8668 0
      vertex 73.75 -22 0
    endloop
  endfacet
  facet normal 0 0 -1
    outer loop
      vertex 72.675 65.8668 0
      vertex 76.25 22 0
      vertex 73.75 22 0
    endloop
  endfacet
  facet normal 0 0 -1
    outer loop
      vertex 76.25 22 0
      vertex 72.675 65.8668 0
      vertex 75.35 70.5 0
    endloop
  endfacet
  facet normal 0 0 -1
    outer loop
      vertex 60 -69.625 0
      vertex 64.65 -70.5 0
      vertex 60 -75 0
    endloop
  endfacet
  facet normal 0 0 -1
    outer loop
      vertex 60 -66.875 0
      vertex 64.65 -70.5 0
      vertex 60 -69.625 0
    endloop
  endfacet
  facet normal 0 0 -1
    outer loop
      vertex 73.75 22 0
      vertex 67.325 65.8668 0
      vertex 72.675 65.8668 0
    endloop
  endfacet
  facet normal 0 0 -1
    outer loop
      vertex 64.65 -70.5 0
      vertex 60 -66.875 0
      vertex 67.325 -65.8668 0
    endloop
  endfacet
  facet normal 0 0 -1
    outer loop
      vertex 73.75 22 0
      vertex 64.65 70.5 0
      vertex 67.325 65.8668 0
    endloop
  endfacet
  facet normal 0 0 -1
    outer loop
      vertex 76.25 22 0
      vertex 80 13 0
      vertex 76.25 13 0
    endloop
  endfacet
  facet normal 0 0 -1
    outer loop
      vertex 80 13 0
      vertex 76.25 22 0
      vertex 80 75 0
    endloop
  endfacet
  facet normal 0 0 -1
    outer loop
      vertex 75.35 70.5 0
      vertex 80 75 0
      vertex 76.25 22 0
    endloop
  endfacet
  facet normal -0 0 -1
    outer loop
      vertex 80 75 0
      vertex 75.35 70.5 0
      vertex 72.7519 75 0
    endloop
  endfacet
  facet normal -0 0 -1
    outer loop
      vertex 73.75 -22 0
      vertex 60 -66.875 0
      vertex 73.75 22 0
    endloop
  endfacet
  facet normal 0 0 -1
    outer loop
      vertex 60 66.875 0
      vertex 73.75 22 0
      vertex 60 -66.875 0
    endloop
  endfacet
  facet normal 0 0 -1
    outer loop
      vertex 73.75 22 0
      vertex 60 66.875 0
      vertex 64.65 70.5 0
    endloop
  endfacet
  facet normal 0 0 -1
    outer loop
      vertex 60 69.625 0
      vertex 64.65 70.5 0
      vertex 60 66.875 0
    endloop
  endfacet
  facet normal 0 0 -1
    outer loop
      vertex 60 75 0
      vertex 64.65 70.5 0
      vertex 60 69.625 0
    endloop
  endfacet
  facet normal 0 0 -1
    outer loop
      vertex 64.65 70.5 0
      vertex 60 75 0
      vertex 67.2481 75 0
    endloop
  endfacet
  facet normal 0 0 -1
    outer loop
      vertex 60 66.875 0
      vertex 56.25 69.625 0
      vertex 60 69.625 0
    endloop
  endfacet
  facet normal 0 0 -1
    outer loop
      vertex 52.5 66.875 0
      vertex 56.25 69.625 0
      vertex 60 66.875 0
    endloop
  endfacet
  facet normal 0 0 -1
    outer loop
      vertex 52.5 74.25 0
      vertex 56.25 69.625 0
      vertex 52.5 66.875 0
    endloop
  endfacet
  facet normal 0 0 -1
    outer loop
      vertex 56.25 69.625 0
      vertex 52.5 74.25 0
      vertex 56.25 74.25 0
    endloop
  endfacet
  facet normal 0 0 -1
    outer loop
      vertex 56.25 -69.625 0
      vertex 60 -66.875 0
      vertex 60 -69.625 0
    endloop
  endfacet
  facet normal 0 0 -1
    outer loop
      vertex 56.25 -69.625 0
      vertex 52.5 -66.875 0
      vertex 60 -66.875 0
    endloop
  endfacet
  facet normal 0 0 -1
    outer loop
      vertex 52.5 -66.875 0
      vertex 56.25 -69.625 0
      vertex 52.5 -74.25 0
    endloop
  endfacet
  facet normal -1 0 0
    outer loop
      vertex 60 -69.625 0
      vertex 60 -75 0
      vertex 60 -69.625 5.5
    endloop
  endfacet
  facet normal -1 0 0
    outer loop
      vertex 60 66.875 0
      vertex 60 -66.875 0
      vertex 60 66.875 5.5
    endloop
  endfacet
  facet normal -1 0 0
    outer loop
      vertex 60 69.625 5.5
      vertex 60 75 0
      vertex 60 69.625 0
    endloop
  endfacet
  facet normal -1 0 0
    outer loop
      vertex 60 75 0
      vertex 60 69.625 5.5
      vertex 60 75 8.25
    endloop
  endfacet
  facet normal -1 0 0
    outer loop
      vertex 60 66.875 5.5
      vertex 60 75 8.25
      vertex 60 69.625 5.5
    endloop
  endfacet
  facet normal -1 0 0
    outer loop
      vertex 60 -66.875 5.5
      vertex 60 66.875 5.5
      vertex 60 -66.875 0
    endloop
  endfacet
  facet normal -1 0 0
    outer loop
      vertex 60 66.875 5.5
      vertex 60 -66.875 5.5
      vertex 60 75 8.25
    endloop
  endfacet
  facet normal -1 0 0
    outer loop
      vertex 60 -75 8.25
      vertex 60 -66.875 5.5
      vertex 60 -69.625 5.5
    endloop
  endfacet
  facet normal -1 0 0
    outer loop
      vertex 60 -66.875 5.5
      vertex 60 -75 8.25
      vertex 60 75 8.25
    endloop
  endfacet
  facet normal -1 0 0
    outer loop
      vertex 60 -75 8.25
      vertex 60 -69.625 5.5
      vertex 60 -75 0
    endloop
  endfacet
  facet normal 0 1 0
    outer loop
      vertex 80 75 8.25
      vertex 72.7519 75 5
      vertex 60 75 8.25
    endloop
  endfacet
  facet normal 0 1 -0
    outer loop
      vertex 80 75 0
      vertex 72.7519 75 5
      vertex 80 75 8.25
    endloop
  endfacet
  facet normal 0 1 0
    outer loop
      vertex 72.7519 75 5
      vertex 80 75 0
      vertex 72.7519 75 0
    endloop
  endfacet
  facet normal 0 1 -0
    outer loop
      vertex 67.2481 75 5
      vertex 60 75 8.25
      vertex 72.7519 75 5
    endloop
  endfacet
  facet normal 0 1 0
    outer loop
      vertex 60 75 0
      vertex 67.2481 75 5
      vertex 67.2481 75 0
    endloop
  endfacet
  facet normal 0 1 0
    outer loop
      vertex 67.2481 75 5
      vertex 60 75 0
      vertex 60 75 8.25
    endloop
  endfacet
  facet normal 0 -1 0
    outer loop
      vertex 60 -75 8.25
      vertex 67.2481 -75 5
      vertex 80 -75 8.25
    endloop
  endfacet
  facet normal 0 -1 0
    outer loop
      vertex 60 -75 0
      vertex 67.2481 -75 5
      vertex 60 -75 8.25
    endloop
  endfacet
  facet normal 0 -1 -0
    outer loop
      vertex 67.2481 -75 5
      vertex 60 -75 0
      vertex 67.2481 -75 0
    endloop
  endfacet
  facet normal 0 -1 0
    outer loop
      vertex 72.7519 -75 5
      vertex 80 -75 8.25
      vertex 67.2481 -75 5
    endloop
  endfacet
  facet normal 0 -1 0
    outer loop
      vertex 80 -75 0
      vertex 72.7519 -75 5
      vertex 72.7519 -75 0
    endloop
  endfacet
  facet normal 0 -1 0
    outer loop
      vertex 72.7519 -75 5
      vertex 80 -75 0
      vertex 80 -75 8.25
    endloop
  endfacet
  facet normal -0 0 1
    outer loop
      vertex 52.5 69.625 5.5
      vertex 60 66.875 5.5
      vertex 60 69.625 5.5
    endloop
  endfacet
  facet normal 0 0 1
    outer loop
      vertex 60 66.875 5.5
      vertex 52.5 69.625 5.5
      vertex 52.5 66.875 5.5
    endloop
  endfacet
  facet normal -1 0 0
    outer loop
      vertex 52.5 74.25 0
      vertex 52.5 69.625 2.75
      vertex 52.5 74.25 2.75
    endloop
  endfacet
  facet normal -1 0 0
    outer loop
      vertex 52.5 66.875 0
      vertex 52.5 69.625 2.75
      vertex 52.5 74.25 0
    endloop
  endfacet
  facet normal -1 0 0
    outer loop
      vertex 52.5 66.875 5.5
      vertex 52.5 69.625 2.75
      vertex 52.5 66.875 0
    endloop
  endfacet
  facet normal -1 0 0
    outer loop
      vertex 52.5 69.625 2.75
      vertex 52.5 66.875 5.5
      vertex 52.5 69.625 5.5
    endloop
  endfacet
  facet normal 0 1 0
    outer loop
      vertex 60 69.625 5.5
      vertex 56.25 69.625 2.75
      vertex 52.5 69.625 5.5
    endloop
  endfacet
  facet normal 0 1 -0
    outer loop
      vertex 60 69.625 0
      vertex 56.25 69.625 2.75
      vertex 60 69.625 5.5
    endloop
  endfacet
  facet normal 0 1 0
    outer loop
      vertex 56.25 69.625 2.75
      vertex 60 69.625 0
      vertex 56.25 69.625 0
    endloop
  endfacet
  facet normal 0 1 0
    outer loop
      vertex 52.5 69.625 5.5
      vertex 56.25 69.625 2.75
      vertex 52.5 69.625 2.75
    endloop
  endfacet
  facet normal 0 -1 0
    outer loop
      vertex 52.5 66.875 0
      vertex 60 66.875 5.5
      vertex 52.5 66.875 5.5
    endloop
  endfacet
  facet normal 0 -1 -0
    outer loop
      vertex 60 66.875 5.5
      vertex 52.5 66.875 0
      vertex 60 66.875 0
    endloop
  endfacet
  facet normal -0 0 1
    outer loop
      vertex 52.5 -66.875 5.5
      vertex 60 -69.625 5.5
      vertex 60 -66.875 5.5
    endloop
  endfacet
  facet normal 0 0 1
    outer loop
      vertex 60 -69.625 5.5
      vertex 52.5 -66.875 5.5
      vertex 52.5 -69.625 5.5
    endloop
  endfacet
  facet normal -1 0 0
    outer loop
      vertex 52.5 -66.875 0
      vertex 52.5 -69.625 2.75
      vertex 52.5 -66.875 5.5
    endloop
  endfacet
  facet normal -1 0 0
    outer loop
      vertex 52.5 -74.25 0
      vertex 52.5 -69.625 2.75
      vertex 52.5 -66.875 0
    endloop
  endfacet
  facet normal -1 -0 0
    outer loop
      vertex 52.5 -69.625 2.75
      vertex 52.5 -74.25 0
      vertex 52.5 -74.25 2.75
    endloop
  endfacet
  facet normal -1 -0 0
    outer loop
      vertex 52.5 -66.875 5.5
      vertex 52.5 -69.625 2.75
      vertex 52.5 -69.625 5.5
    endloop
  endfacet
  facet normal 0 1 -0
    outer loop
      vertex 60 -66.875 0
      vertex 52.5 -66.875 5.5
      vertex 60 -66.875 5.5
    endloop
  endfacet
  facet normal 0 1 0
    outer loop
      vertex 52.5 -66.875 5.5
      vertex 60 -66.875 0
      vertex 52.5 -66.875 0
    endloop
  endfacet
  facet normal 0 -1 0
    outer loop
      vertex 56.25 -69.625 2.75
      vertex 52.5 -69.625 5.5
      vertex 52.5 -69.625 2.75
    endloop
  endfacet
  facet normal 0 -1 0
    outer loop
      vertex 52.5 -69.625 5.5
      vertex 56.25 -69.625 2.75
      vertex 60 -69.625 5.5
    endloop
  endfacet
  facet normal 0 -1 0
    outer loop
      vertex 60 -69.625 0
      vertex 56.25 -69.625 2.75
      vertex 56.25 -69.625 0
    endloop
  endfacet
  facet normal 0 -1 0
    outer loop
      vertex 56.25 -69.625 2.75
      vertex 60 -69.625 0
      vertex 60 -69.625 5.5
    endloop
  endfacet
  facet normal 1 -0 0
    outer loop
      vertex 56.25 69.625 2.75
      vertex 56.25 74.25 0
      vertex 56.25 74.25 2.75
    endloop
  endfacet
  facet normal 1 0 0
    outer loop
      vertex 56.25 74.25 0
      vertex 56.25 69.625 2.75
      vertex 56.25 69.625 0
    endloop
  endfacet
  facet normal -0 0 1
    outer loop
      vertex 52.5 74.25 2.75
      vertex 56.25 69.625 2.75
      vertex 56.25 74.25 2.75
    endloop
  endfacet
  facet normal 0 0 1
    outer loop
      vertex 56.25 69.625 2.75
      vertex 52.5 74.25 2.75
      vertex 52.5 69.625 2.75
    endloop
  endfacet
  facet normal 0 1 -0
    outer loop
      vertex 56.25 74.25 0
      vertex 52.5 74.25 2.75
      vertex 56.25 74.25 2.75
    endloop
  endfacet
  facet normal 0 1 0
    outer loop
      vertex 52.5 74.25 2.75
      vertex 56.25 74.25 0
      vertex 52.5 74.25 0
    endloop
  endfacet
  facet normal 1 -0 0
    outer loop
      vertex 56.25 -74.25 2.75
      vertex 56.25 -69.625 0
      vertex 56.25 -69.625 2.75
    endloop
  endfacet
  facet normal 1 0 0
    outer loop
      vertex 56.25 -69.625 0
      vertex 56.25 -74.25 2.75
      vertex 56.25 -74.25 0
    endloop
  endfacet
  facet normal -0 0 1
    outer loop
      vertex 52.5 -69.625 2.75
      vertex 56.25 -74.25 2.75
      vertex 56.25 -69.625 2.75
    endloop
  endfacet
  facet normal 0 0 1
    outer loop
      vertex 56.25 -74.25 2.75
      vertex 52.5 -69.625 2.75
      vertex 52.5 -74.25 2.75
    endloop
  endfacet
  facet normal 0 -1 0
    outer loop
      vertex 52.5 -74.25 0
      vertex 56.25 -74.25 2.75
      vertex 52.5 -74.25 2.75
    endloop
  endfacet
  facet normal 0 -1 -0
    outer loop
      vertex 56.25 -74.25 2.75
      vertex 52.5 -74.25 0
      vertex 56.25 -74.25 0
    endloop
  endfacet
  facet normal -1 0 0
    outer loop
      vertex 76.25 13 0
      vertex 76.25 22 8.25
      vertex 76.25 22 0
    endloop
  endfacet
  facet normal -1 -0 0
    outer loop
      vertex 76.25 22 8.25
      vertex 76.25 13 0
      vertex 76.25 13 8.25
    endloop
  endfacet
  facet normal -1 0 0
    outer loop
      vertex 76.25 -22 0
      vertex 76.25 -13 8.25
      vertex 76.25 -13 0
    endloop
  endfacet
  facet normal -1 -0 0
    outer loop
      vertex 76.25 -13 8.25
      vertex 76.25 -22 0
      vertex 76.25 -22 8.25
    endloop
  endfacet
  facet normal 1 -0 0
    outer loop
      vertex 73.75 -22 8.25
      vertex 73.75 22 0
      vertex 73.75 22 8.25
    endloop
  endfacet
  facet normal 1 0 0
    outer loop
      vertex 73.75 22 0
      vertex 73.75 -22 8.25
      vertex 73.75 -22 0
    endloop
  endfacet
  facet normal 0 -1 0
    outer loop
      vertex 73.75 22 0
      vertex 76.25 22 8.25
      vertex 73.75 22 8.25
    endloop
  endfacet
  facet normal 0 -1 -0
    outer loop
      vertex 76.25 22 8.25
      vertex 73.75 22 0
      vertex 76.25 22 0
    endloop
  endfacet
  facet normal 0 1 -0
    outer loop
      vertex 76.25 -22 0
      vertex 73.75 -22 8.25
      vertex 76.25 -22 8.25
    endloop
  endfacet
  facet normal 0 1 0
    outer loop
      vertex 73.75 -22 8.25
      vertex 76.25 -22 0
      vertex 73.75 -22 0
    endloop
  endfacet
  facet normal 0 -1 0
    outer loop
      vertex 76.25 13 0
      vertex 80 13 8.25
      vertex 76.25 13 8.25
    endloop
  endfacet
  facet normal 0 -1 -0
    outer loop
      vertex 80 13 8.25
      vertex 76.25 13 0
      vertex 80 13 0
    endloop
  endfacet
  facet normal 0 1 -0
    outer loop
      vertex 80 -13 0
      vertex 76.25 -13 8.25
      vertex 80 -13 8.25
    endloop
  endfacet
  facet normal 0 1 0
    outer loop
      vertex 76.25 -13 8.25
      vertex 80 -13 0
      vertex 76.25 -13 0
    endloop
  endfacet
  facet normal -0.977149 -0.212557 0
    outer loop
      vertex 72.722 70.8914 5
      vertex 72.6386 71.2748 8.25
      vertex 72.6386 71.2748 5
    endloop
  endfacet
  facet normal -0.977149 -0.212557 0
    outer loop
      vertex 72.6386 71.2748 8.25
      vertex 72.722 70.8914 5
      vertex 72.722 70.8914 8.25
    endloop
  endfacet
  facet normal -0.997451 -0.0713557 0
    outer loop
      vertex 72.75 70.5 5
      vertex 72.722 70.8914 8.25
      vertex 72.722 70.8914 5
    endloop
  endfacet
  facet normal -0.997451 -0.0713557 0
    outer loop
      vertex 72.722 70.8914 8.25
      vertex 72.75 70.5 5
      vertex 72.75 70.5 8.25
    endloop
  endfacet
  facet normal -0.936956 -0.349447 0
    outer loop
      vertex 72.6386 71.2748 5
      vertex 72.5015 71.6424 8.25
      vertex 72.5015 71.6424 5
    endloop
  endfacet
  facet normal -0.936956 -0.349447 0
    outer loop
      vertex 72.5015 71.6424 8.25
      vertex 72.6386 71.2748 5
      vertex 72.6386 71.2748 8.25
    endloop
  endfacet
  facet normal 0.800581 0.599225 0
    outer loop
      vertex 67.9217 68.6991 8.25
      vertex 67.6866 69.0132 5
      vertex 67.6866 69.0132 8.25
    endloop
  endfacet
  facet normal 0.800581 0.599225 0
    outer loop
      vertex 67.6866 69.0132 5
      vertex 67.9217 68.6991 8.25
      vertex 67.9217 68.6991 5
    endloop
  endfacet
  facet normal -0.800581 -0.599225 0
    outer loop
      vertex 72.3134 71.9868 5
      vertex 72.0783 72.3009 8.25
      vertex 72.0783 72.3009 5
    endloop
  endfacet
  facet normal -0.800581 -0.599225 0
    outer loop
      vertex 72.0783 72.3009 8.25
      vertex 72.3134 71.9868 5
      vertex 72.3134 71.9868 8.25
    endloop
  endfacet
  facet normal -0.877632 0.479334 0
    outer loop
      vertex 72.3134 69.0132 5
      vertex 72.5015 69.3576 8.25
      vertex 72.5015 69.3576 5
    endloop
  endfacet
  facet normal -0.877632 0.479334 0
    outer loop
      vertex 72.5015 69.3576 8.25
      vertex 72.3134 69.0132 5
      vertex 72.3134 69.0132 8.25
    endloop
  endfacet
  facet normal -0.936956 0.349447 0
    outer loop
      vertex 72.5015 69.3576 5
      vertex 72.6386 69.7252 8.25
      vertex 72.6386 69.7252 5
    endloop
  endfacet
  facet normal -0.936956 0.349447 0
    outer loop
      vertex 72.6386 69.7252 8.25
      vertex 72.5015 69.3576 5
      vertex 72.5015 69.3576 8.25
    endloop
  endfacet
  facet normal -0.877632 -0.479334 0
    outer loop
      vertex 72.5015 71.6424 5
      vertex 72.3134 71.9868 8.25
      vertex 72.3134 71.9868 5
    endloop
  endfacet
  facet normal -0.877632 -0.479334 0
    outer loop
      vertex 72.3134 71.9868 8.25
      vertex 72.5015 71.6424 5
      vertex 72.5015 71.6424 8.25
    endloop
  endfacet
  facet normal 0.977149 -0.212557 0
    outer loop
      vertex 67.278 70.8914 8.25
      vertex 67.3614 71.2748 5
      vertex 67.3614 71.2748 8.25
    endloop
  endfacet
  facet normal 0.977149 -0.212557 0
    outer loop
      vertex 67.3614 71.2748 5
      vertex 67.278 70.8914 8.25
      vertex 67.278 70.8914 5
    endloop
  endfacet
  facet normal -0.707107 0.707107 0
    outer loop
      vertex 71.8009 68.4217 5
      vertex 72.0783 68.6991 8.25
      vertex 72.0783 68.6991 5
    endloop
  endfacet
  facet normal -0.707107 0.707107 0
    outer loop
      vertex 72.0783 68.6991 8.25
      vertex 71.8009 68.4217 5
      vertex 71.8009 68.4217 8.25
    endloop
  endfacet
  facet normal -0.599225 -0.800581 0
    outer loop
      vertex 71.4868 72.8134 5
      vertex 71.8009 72.5783 8.25
      vertex 71.4868 72.8134 8.25
    endloop
  endfacet
  facet normal -0.599225 -0.800581 -0
    outer loop
      vertex 71.8009 72.5783 8.25
      vertex 71.4868 72.8134 5
      vertex 71.8009 72.5783 5
    endloop
  endfacet
  facet normal 0.599225 0.800581 -0
    outer loop
      vertex 68.5132 68.1866 5
      vertex 68.1991 68.4217 8.25
      vertex 68.5132 68.1866 8.25
    endloop
  endfacet
  facet normal 0.599225 0.800581 0
    outer loop
      vertex 68.1991 68.4217 8.25
      vertex 68.5132 68.1866 5
      vertex 68.1991 68.4217 5
    endloop
  endfacet
  facet normal 0.877632 -0.479334 0
    outer loop
      vertex 67.4985 71.6424 8.25
      vertex 67.6866 71.9868 5
      vertex 67.6866 71.9868 8.25
    endloop
  endfacet
  facet normal 0.877632 -0.479334 0
    outer loop
      vertex 67.6866 71.9868 5
      vertex 67.4985 71.6424 8.25
      vertex 67.4985 71.6424 5
    endloop
  endfacet
  facet normal 0.349447 0.936956 -0
    outer loop
      vertex 69.2252 67.8614 5
      vertex 68.8576 67.9985 8.25
      vertex 69.2252 67.8614 8.25
    endloop
  endfacet
  facet normal 0.349447 0.936956 0
    outer loop
      vertex 68.8576 67.9985 8.25
      vertex 69.2252 67.8614 5
      vertex 68.8576 67.9985 5
    endloop
  endfacet
  facet normal -0.479334 0.877632 0
    outer loop
      vertex 71.4868 68.1866 5
      vertex 71.1424 67.9985 8.25
      vertex 71.4868 68.1866 8.25
    endloop
  endfacet
  facet normal -0.479334 0.877632 0
    outer loop
      vertex 71.1424 67.9985 8.25
      vertex 71.4868 68.1866 5
      vertex 71.1424 67.9985 5
    endloop
  endfacet
  facet normal -0.599225 0.800581 0
    outer loop
      vertex 71.8009 68.4217 5
      vertex 71.4868 68.1866 8.25
      vertex 71.8009 68.4217 8.25
    endloop
  endfacet
  facet normal -0.599225 0.800581 0
    outer loop
      vertex 71.4868 68.1866 8.25
      vertex 71.8009 68.4217 5
      vertex 71.4868 68.1866 5
    endloop
  endfacet
  facet normal -0.349447 0.936956 0
    outer loop
      vertex 71.1424 67.9985 5
      vertex 70.7748 67.8614 8.25
      vertex 71.1424 67.9985 8.25
    endloop
  endfacet
  facet normal -0.349447 0.936956 0
    outer loop
      vertex 70.7748 67.8614 8.25
      vertex 71.1424 67.9985 5
      vertex 70.7748 67.8614 5
    endloop
  endfacet
  facet normal -0.997451 0.0713557 0
    outer loop
      vertex 72.722 70.1086 5
      vertex 72.75 70.5 8.25
      vertex 72.75 70.5 5
    endloop
  endfacet
  facet normal -0.997451 0.0713557 0
    outer loop
      vertex 72.75 70.5 8.25
      vertex 72.722 70.1086 5
      vertex 72.722 70.1086 8.25
    endloop
  endfacet
  facet normal 0.0713557 -0.997451 0
    outer loop
      vertex 69.6086 73.222 5
      vertex 70 73.25 8.25
      vertex 69.6086 73.222 8.25
    endloop
  endfacet
  facet normal 0.0713557 -0.997451 0
    outer loop
      vertex 70 73.25 8.25
      vertex 69.6086 73.222 5
      vertex 70 73.25 5
    endloop
  endfacet
  facet normal 0.877632 0.479334 0
    outer loop
      vertex 67.6866 69.0132 8.25
      vertex 67.4985 69.3576 5
      vertex 67.4985 69.3576 8.25
    endloop
  endfacet
  facet normal 0.877632 0.479334 0
    outer loop
      vertex 67.4985 69.3576 5
      vertex 67.6866 69.0132 8.25
      vertex 67.6866 69.0132 5
    endloop
  endfacet
  facet normal -0.977149 0.212557 0
    outer loop
      vertex 72.6386 69.7252 5
      vertex 72.722 70.1086 8.25
      vertex 72.722 70.1086 5
    endloop
  endfacet
  facet normal -0.977149 0.212557 0
    outer loop
      vertex 72.722 70.1086 8.25
      vertex 72.6386 69.7252 5
      vertex 72.6386 69.7252 8.25
    endloop
  endfacet
  facet normal 0.936956 0.349447 0
    outer loop
      vertex 67.4985 69.3576 8.25
      vertex 67.3614 69.7252 5
      vertex 67.3614 69.7252 8.25
    endloop
  endfacet
  facet normal 0.936956 0.349447 0
    outer loop
      vertex 67.3614 69.7252 5
      vertex 67.4985 69.3576 8.25
      vertex 67.4985 69.3576 5
    endloop
  endfacet
  facet normal -0.800581 0.599225 0
    outer loop
      vertex 72.0783 68.6991 5
      vertex 72.3134 69.0132 8.25
      vertex 72.3134 69.0132 5
    endloop
  endfacet
  facet normal -0.800581 0.599225 0
    outer loop
      vertex 72.3134 69.0132 8.25
      vertex 72.0783 68.6991 5
      vertex 72.0783 68.6991 8.25
    endloop
  endfacet
  facet normal 0.479334 -0.877632 0
    outer loop
      vertex 68.5132 72.8134 5
      vertex 68.8576 73.0015 8.25
      vertex 68.5132 72.8134 8.25
    endloop
  endfacet
  facet normal 0.479334 -0.877632 0
    outer loop
      vertex 68.8576 73.0015 8.25
      vertex 68.5132 72.8134 5
      vertex 68.8576 73.0015 5
    endloop
  endfacet
  facet normal -0.212557 0.977149 0
    outer loop
      vertex 70.7748 67.8614 5
      vertex 70.3914 67.778 8.25
      vertex 70.7748 67.8614 8.25
    endloop
  endfacet
  facet normal -0.212557 0.977149 0
    outer loop
      vertex 70.3914 67.778 8.25
      vertex 70.7748 67.8614 5
      vertex 70.3914 67.778 5
    endloop
  endfacet
  facet normal -0.479334 -0.877632 0
    outer loop
      vertex 71.1424 73.0015 5
      vertex 71.4868 72.8134 8.25
      vertex 71.1424 73.0015 8.25
    endloop
  endfacet
  facet normal -0.479334 -0.877632 -0
    outer loop
      vertex 71.4868 72.8134 8.25
      vertex 71.1424 73.0015 5
      vertex 71.4868 72.8134 5
    endloop
  endfacet
  facet normal -0.349447 -0.936956 0
    outer loop
      vertex 70.7748 73.1386 5
      vertex 71.1424 73.0015 8.25
      vertex 70.7748 73.1386 8.25
    endloop
  endfacet
  facet normal -0.349447 -0.936956 -0
    outer loop
      vertex 71.1424 73.0015 8.25
      vertex 70.7748 73.1386 5
      vertex 71.1424 73.0015 5
    endloop
  endfacet
  facet normal 0.479334 0.877632 -0
    outer loop
      vertex 68.8576 67.9985 5
      vertex 68.5132 68.1866 8.25
      vertex 68.8576 67.9985 8.25
    endloop
  endfacet
  facet normal 0.479334 0.877632 0
    outer loop
      vertex 68.5132 68.1866 8.25
      vertex 68.8576 67.9985 5
      vertex 68.5132 68.1866 5
    endloop
  endfacet
  facet normal 0.0713557 0.997451 -0
    outer loop
      vertex 70 67.75 5
      vertex 69.6086 67.778 8.25
      vertex 70 67.75 8.25
    endloop
  endfacet
  facet normal 0.0713557 0.997451 0
    outer loop
      vertex 69.6086 67.778 8.25
      vertex 70 67.75 5
      vertex 69.6086 67.778 5
    endloop
  endfacet
  facet normal -0.707107 -0.707107 0
    outer loop
      vertex 72.0783 72.3009 5
      vertex 71.8009 72.5783 8.25
      vertex 71.8009 72.5783 5
    endloop
  endfacet
  facet normal -0.707107 -0.707107 0
    outer loop
      vertex 71.8009 72.5783 8.25
      vertex 72.0783 72.3009 5
      vertex 72.0783 72.3009 8.25
    endloop
  endfacet
  facet normal 0.977149 0.212557 0
    outer loop
      vertex 67.3614 69.7252 8.25
      vertex 67.278 70.1086 5
      vertex 67.278 70.1086 8.25
    endloop
  endfacet
  facet normal 0.977149 0.212557 0
    outer loop
      vertex 67.278 70.1086 5
      vertex 67.3614 69.7252 8.25
      vertex 67.3614 69.7252 5
    endloop
  endfacet
  facet normal 0.997451 -0.0713557 0
    outer loop
      vertex 67.25 70.5 8.25
      vertex 67.278 70.8914 5
      vertex 67.278 70.8914 8.25
    endloop
  endfacet
  facet normal 0.997451 -0.0713557 0
    outer loop
      vertex 67.278 70.8914 5
      vertex 67.25 70.5 8.25
      vertex 67.25 70.5 5
    endloop
  endfacet
  facet normal 0.349447 -0.936956 0
    outer loop
      vertex 68.8576 73.0015 5
      vertex 69.2252 73.1386 8.25
      vertex 68.8576 73.0015 8.25
    endloop
  endfacet
  facet normal 0.349447 -0.936956 0
    outer loop
      vertex 69.2252 73.1386 8.25
      vertex 68.8576 73.0015 5
      vertex 69.2252 73.1386 5
    endloop
  endfacet
  facet normal 0.212557 0.977149 -0
    outer loop
      vertex 69.6086 67.778 5
      vertex 69.2252 67.8614 8.25
      vertex 69.6086 67.778 8.25
    endloop
  endfacet
  facet normal 0.212557 0.977149 0
    outer loop
      vertex 69.2252 67.8614 8.25
      vertex 69.6086 67.778 5
      vertex 69.2252 67.8614 5
    endloop
  endfacet
  facet normal 0.707107 -0.707107 0
    outer loop
      vertex 67.9217 72.3009 8.25
      vertex 68.1991 72.5783 5
      vertex 68.1991 72.5783 8.25
    endloop
  endfacet
  facet normal 0.707107 -0.707107 0
    outer loop
      vertex 68.1991 72.5783 5
      vertex 67.9217 72.3009 8.25
      vertex 67.9217 72.3009 5
    endloop
  endfacet
  facet normal 0.800581 -0.599225 0
    outer loop
      vertex 67.6866 71.9868 8.25
      vertex 67.9217 72.3009 5
      vertex 67.9217 72.3009 8.25
    endloop
  endfacet
  facet normal 0.800581 -0.599225 0
    outer loop
      vertex 67.9217 72.3009 5
      vertex 67.6866 71.9868 8.25
      vertex 67.6866 71.9868 5
    endloop
  endfacet
  facet normal -0.0713557 0.997451 0
    outer loop
      vertex 70.3914 67.778 5
      vertex 70 67.75 8.25
      vertex 70.3914 67.778 8.25
    endloop
  endfacet
  facet normal -0.0713557 0.997451 0
    outer loop
      vertex 70 67.75 8.25
      vertex 70.3914 67.778 5
      vertex 70 67.75 5
    endloop
  endfacet
  facet normal -0.212557 -0.977149 0
    outer loop
      vertex 70.3914 73.222 5
      vertex 70.7748 73.1386 8.25
      vertex 70.3914 73.222 8.25
    endloop
  endfacet
  facet normal -0.212557 -0.977149 -0
    outer loop
      vertex 70.7748 73.1386 8.25
      vertex 70.3914 73.222 5
      vertex 70.7748 73.1386 5
    endloop
  endfacet
  facet normal 0.212557 -0.977149 0
    outer loop
      vertex 69.2252 73.1386 5
      vertex 69.6086 73.222 8.25
      vertex 69.2252 73.1386 8.25
    endloop
  endfacet
  facet normal 0.212557 -0.977149 0
    outer loop
      vertex 69.6086 73.222 8.25
      vertex 69.2252 73.1386 5
      vertex 69.6086 73.222 5
    endloop
  endfacet
  facet normal 0.599225 -0.800581 0
    outer loop
      vertex 68.1991 72.5783 5
      vertex 68.5132 72.8134 8.25
      vertex 68.1991 72.5783 8.25
    endloop
  endfacet
  facet normal 0.599225 -0.800581 0
    outer loop
      vertex 68.5132 72.8134 8.25
      vertex 68.1991 72.5783 5
      vertex 68.5132 72.8134 5
    endloop
  endfacet
  facet normal -0.0713557 -0.997451 0
    outer loop
      vertex 70 73.25 5
      vertex 70.3914 73.222 8.25
      vertex 70 73.25 8.25
    endloop
  endfacet
  facet normal -0.0713557 -0.997451 -0
    outer loop
      vertex 70.3914 73.222 8.25
      vertex 70 73.25 5
      vertex 70.3914 73.222 5
    endloop
  endfacet
  facet normal 0.997451 0.0713557 0
    outer loop
      vertex 67.278 70.1086 8.25
      vertex 67.25 70.5 5
      vertex 67.25 70.5 8.25
    endloop
  endfacet
  facet normal 0.997451 0.0713557 0
    outer loop
      vertex 67.25 70.5 5
      vertex 67.278 70.1086 8.25
      vertex 67.278 70.1086 5
    endloop
  endfacet
  facet normal 0.707107 0.707107 0
    outer loop
      vertex 68.1991 68.4217 8.25
      vertex 67.9217 68.6991 5
      vertex 67.9217 68.6991 8.25
    endloop
  endfacet
  facet normal 0.707107 0.707107 0
    outer loop
      vertex 67.9217 68.6991 5
      vertex 68.1991 68.4217 8.25
      vertex 68.1991 68.4217 5
    endloop
  endfacet
  facet normal 0.936956 -0.349447 0
    outer loop
      vertex 67.3614 71.2748 8.25
      vertex 67.4985 71.6424 5
      vertex 67.4985 71.6424 8.25
    endloop
  endfacet
  facet normal 0.936956 -0.349447 0
    outer loop
      vertex 67.4985 71.6424 5
      vertex 67.3614 71.2748 8.25
      vertex 67.3614 71.2748 5
    endloop
  endfacet
  facet normal 0.212557 0.977149 -0
    outer loop
      vertex 69.6086 -73.222 5
      vertex 69.2252 -73.1386 8.25
      vertex 69.6086 -73.222 8.25
    endloop
  endfacet
  facet normal 0.212557 0.977149 0
    outer loop
      vertex 69.2252 -73.1386 8.25
      vertex 69.6086 -73.222 5
      vertex 69.2252 -73.1386 5
    endloop
  endfacet
  facet normal -0.977149 -0.212557 0
    outer loop
      vertex 72.722 -70.1086 5
      vertex 72.6386 -69.7252 8.25
      vertex 72.6386 -69.7252 5
    endloop
  endfacet
  facet normal -0.977149 -0.212557 0
    outer loop
      vertex 72.6386 -69.7252 8.25
      vertex 72.722 -70.1086 5
      vertex 72.722 -70.1086 8.25
    endloop
  endfacet
  facet normal -0.997451 -0.0713557 0
    outer loop
      vertex 72.75 -70.5 5
      vertex 72.722 -70.1086 8.25
      vertex 72.722 -70.1086 5
    endloop
  endfacet
  facet normal -0.997451 -0.0713557 0
    outer loop
      vertex 72.722 -70.1086 8.25
      vertex 72.75 -70.5 5
      vertex 72.75 -70.5 8.25
    endloop
  endfacet
  facet normal -0.936956 -0.349447 0
    outer loop
      vertex 72.6386 -69.7252 5
      vertex 72.5015 -69.3576 8.25
      vertex 72.5015 -69.3576 5
    endloop
  endfacet
  facet normal -0.936956 -0.349447 0
    outer loop
      vertex 72.5015 -69.3576 8.25
      vertex 72.6386 -69.7252 5
      vertex 72.6386 -69.7252 8.25
    endloop
  endfacet
  facet normal -0.212557 0.977149 0
    outer loop
      vertex 70.7748 -73.1386 5
      vertex 70.3914 -73.222 8.25
      vertex 70.7748 -73.1386 8.25
    endloop
  endfacet
  facet normal -0.212557 0.977149 0
    outer loop
      vertex 70.3914 -73.222 8.25
      vertex 70.7748 -73.1386 5
      vertex 70.3914 -73.222 5
    endloop
  endfacet
  facet normal -0.800581 -0.599225 0
    outer loop
      vertex 72.3134 -69.0132 5
      vertex 72.0783 -68.6991 8.25
      vertex 72.0783 -68.6991 5
    endloop
  endfacet
  facet normal -0.800581 -0.599225 0
    outer loop
      vertex 72.0783 -68.6991 8.25
      vertex 72.3134 -69.0132 5
      vertex 72.3134 -69.0132 8.25
    endloop
  endfacet
  facet normal 0.349447 0.936956 -0
    outer loop
      vertex 69.2252 -73.1386 5
      vertex 68.8576 -73.0015 8.25
      vertex 69.2252 -73.1386 8.25
    endloop
  endfacet
  facet normal 0.349447 0.936956 0
    outer loop
      vertex 68.8576 -73.0015 8.25
      vertex 69.2252 -73.1386 5
      vertex 68.8576 -73.0015 5
    endloop
  endfacet
  facet normal 0.977149 -0.212557 0
    outer loop
      vertex 67.278 -70.1086 8.25
      vertex 67.3614 -69.7252 5
      vertex 67.3614 -69.7252 8.25
    endloop
  endfacet
  facet normal 0.977149 -0.212557 0
    outer loop
      vertex 67.3614 -69.7252 5
      vertex 67.278 -70.1086 8.25
      vertex 67.278 -70.1086 5
    endloop
  endfacet
  facet normal 0.599225 -0.800581 0
    outer loop
      vertex 68.1991 -68.4217 5
      vertex 68.5132 -68.1866 8.25
      vertex 68.1991 -68.4217 8.25
    endloop
  endfacet
  facet normal 0.599225 -0.800581 0
    outer loop
      vertex 68.5132 -68.1866 8.25
      vertex 68.1991 -68.4217 5
      vertex 68.5132 -68.1866 5
    endloop
  endfacet
  facet normal 0.977149 0.212557 0
    outer loop
      vertex 67.3614 -71.2748 8.25
      vertex 67.278 -70.8914 5
      vertex 67.278 -70.8914 8.25
    endloop
  endfacet
  facet normal 0.977149 0.212557 0
    outer loop
      vertex 67.278 -70.8914 5
      vertex 67.3614 -71.2748 8.25
      vertex 67.3614 -71.2748 5
    endloop
  endfacet
  facet normal -0.997451 0.0713557 0
    outer loop
      vertex 72.722 -70.8914 5
      vertex 72.75 -70.5 8.25
      vertex 72.75 -70.5 5
    endloop
  endfacet
  facet normal -0.997451 0.0713557 0
    outer loop
      vertex 72.75 -70.5 8.25
      vertex 72.722 -70.8914 5
      vertex 72.722 -70.8914 8.25
    endloop
  endfacet
  facet normal -0.877632 -0.479334 0
    outer loop
      vertex 72.5015 -69.3576 5
      vertex 72.3134 -69.0132 8.25
      vertex 72.3134 -69.0132 5
    endloop
  endfacet
  facet normal -0.877632 -0.479334 0
    outer loop
      vertex 72.3134 -69.0132 8.25
      vertex 72.5015 -69.3576 5
      vertex 72.5015 -69.3576 8.25
    endloop
  endfacet
  facet normal -0.0713557 -0.997451 0
    outer loop
      vertex 70 -67.75 5
      vertex 70.3914 -67.778 8.25
      vertex 70 -67.75 8.25
    endloop
  endfacet
  facet normal -0.0713557 -0.997451 -0
    outer loop
      vertex 70.3914 -67.778 8.25
      vertex 70 -67.75 5
      vertex 70.3914 -67.778 5
    endloop
  endfacet
  facet normal -0.707107 0.707107 0
    outer loop
      vertex 71.8009 -72.5783 5
      vertex 72.0783 -72.3009 8.25
      vertex 72.0783 -72.3009 5
    endloop
  endfacet
  facet normal -0.707107 0.707107 0
    outer loop
      vertex 72.0783 -72.3009 8.25
      vertex 71.8009 -72.5783 5
      vertex 71.8009 -72.5783 8.25
    endloop
  endfacet
  facet normal 0.0713557 -0.997451 0
    outer loop
      vertex 69.6086 -67.778 5
      vertex 70 -67.75 8.25
      vertex 69.6086 -67.778 8.25
    endloop
  endfacet
  facet normal 0.0713557 -0.997451 0
    outer loop
      vertex 70 -67.75 8.25
      vertex 69.6086 -67.778 5
      vertex 70 -67.75 5
    endloop
  endfacet
  facet normal 0.800581 0.599225 0
    outer loop
      vertex 67.9217 -72.3009 8.25
      vertex 67.6866 -71.9868 5
      vertex 67.6866 -71.9868 8.25
    endloop
  endfacet
  facet normal 0.800581 0.599225 0
    outer loop
      vertex 67.6866 -71.9868 5
      vertex 67.9217 -72.3009 8.25
      vertex 67.9217 -72.3009 5
    endloop
  endfacet
  facet normal 0.997451 -0.0713557 0
    outer loop
      vertex 67.25 -70.5 8.25
      vertex 67.278 -70.1086 5
      vertex 67.278 -70.1086 8.25
    endloop
  endfacet
  facet normal 0.997451 -0.0713557 0
    outer loop
      vertex 67.278 -70.1086 5
      vertex 67.25 -70.5 8.25
      vertex 67.25 -70.5 5
    endloop
  endfacet
  facet normal -0.977149 0.212557 0
    outer loop
      vertex 72.6386 -71.2748 5
      vertex 72.722 -70.8914 8.25
      vertex 72.722 -70.8914 5
    endloop
  endfacet
  facet normal -0.977149 0.212557 0
    outer loop
      vertex 72.722 -70.8914 8.25
      vertex 72.6386 -71.2748 5
      vertex 72.6386 -71.2748 8.25
    endloop
  endfacet
  facet normal -0.479334 0.877632 0
    outer loop
      vertex 71.4868 -72.8134 5
      vertex 71.1424 -73.0015 8.25
      vertex 71.4868 -72.8134 8.25
    endloop
  endfacet
  facet normal -0.479334 0.877632 0
    outer loop
      vertex 71.1424 -73.0015 8.25
      vertex 71.4868 -72.8134 5
      vertex 71.1424 -73.0015 5
    endloop
  endfacet
  facet normal 0.479334 0.877632 -0
    outer loop
      vertex 68.8576 -73.0015 5
      vertex 68.5132 -72.8134 8.25
      vertex 68.8576 -73.0015 8.25
    endloop
  endfacet
  facet normal 0.479334 0.877632 0
    outer loop
      vertex 68.5132 -72.8134 8.25
      vertex 68.8576 -73.0015 5
      vertex 68.5132 -72.8134 5
    endloop
  endfacet
  facet normal 0.479334 -0.877632 0
    outer loop
      vertex 68.5132 -68.1866 5
      vertex 68.8576 -67.9985 8.25
      vertex 68.5132 -68.1866 8.25
    endloop
  endfacet
  facet normal 0.479334 -0.877632 0
    outer loop
      vertex 68.8576 -67.9985 8.25
      vertex 68.5132 -68.1866 5
      vertex 68.8576 -67.9985 5
    endloop
  endfacet
  facet normal -0.800581 0.599225 0
    outer loop
      vertex 72.0783 -72.3009 5
      vertex 72.3134 -71.9868 8.25
      vertex 72.3134 -71.9868 5
    endloop
  endfacet
  facet normal -0.800581 0.599225 0
    outer loop
      vertex 72.3134 -71.9868 8.25
      vertex 72.0783 -72.3009 5
      vertex 72.0783 -72.3009 8.25
    endloop
  endfacet
  facet normal 0.349447 -0.936956 0
    outer loop
      vertex 68.8576 -67.9985 5
      vertex 69.2252 -67.8614 8.25
      vertex 68.8576 -67.9985 8.25
    endloop
  endfacet
  facet normal 0.349447 -0.936956 0
    outer loop
      vertex 69.2252 -67.8614 8.25
      vertex 68.8576 -67.9985 5
      vertex 69.2252 -67.8614 5
    endloop
  endfacet
  facet normal 0.707107 0.707107 0
    outer loop
      vertex 68.1991 -72.5783 8.25
      vertex 67.9217 -72.3009 5
      vertex 67.9217 -72.3009 8.25
    endloop
  endfacet
  facet normal 0.707107 0.707107 0
    outer loop
      vertex 67.9217 -72.3009 5
      vertex 68.1991 -72.5783 8.25
      vertex 68.1991 -72.5783 5
    endloop
  endfacet
  facet normal -0.479334 -0.877632 0
    outer loop
      vertex 71.1424 -67.9985 5
      vertex 71.4868 -68.1866 8.25
      vertex 71.1424 -67.9985 8.25
    endloop
  endfacet
  facet normal -0.479334 -0.877632 -0
    outer loop
      vertex 71.4868 -68.1866 8.25
      vertex 71.1424 -67.9985 5
      vertex 71.4868 -68.1866 5
    endloop
  endfacet
  facet normal -0.349447 -0.936956 0
    outer loop
      vertex 70.7748 -67.8614 5
      vertex 71.1424 -67.9985 8.25
      vertex 70.7748 -67.8614 8.25
    endloop
  endfacet
  facet normal -0.349447 -0.936956 -0
    outer loop
      vertex 71.1424 -67.9985 8.25
      vertex 70.7748 -67.8614 5
      vertex 71.1424 -67.9985 5
    endloop
  endfacet
  facet normal 0.707107 -0.707107 0
    outer loop
      vertex 67.9217 -68.6991 8.25
      vertex 68.1991 -68.4217 5
      vertex 68.1991 -68.4217 8.25
    endloop
  endfacet
  facet normal 0.707107 -0.707107 0
    outer loop
      vertex 68.1991 -68.4217 5
      vertex 67.9217 -68.6991 8.25
      vertex 67.9217 -68.6991 5
    endloop
  endfacet
  facet normal -0.212557 -0.977149 0
    outer loop
      vertex 70.3914 -67.778 5
      vertex 70.7748 -67.8614 8.25
      vertex 70.3914 -67.778 8.25
    endloop
  endfacet
  facet normal -0.212557 -0.977149 -0
    outer loop
      vertex 70.7748 -67.8614 8.25
      vertex 70.3914 -67.778 5
      vertex 70.7748 -67.8614 5
    endloop
  endfacet
  facet normal -0.599225 -0.800581 0
    outer loop
      vertex 71.4868 -68.1866 5
      vertex 71.8009 -68.4217 8.25
      vertex 71.4868 -68.1866 8.25
    endloop
  endfacet
  facet normal -0.599225 -0.800581 -0
    outer loop
      vertex 71.8009 -68.4217 8.25
      vertex 71.4868 -68.1866 5
      vertex 71.8009 -68.4217 5
    endloop
  endfacet
  facet normal 0.936956 0.349447 0
    outer loop
      vertex 67.4985 -71.6424 8.25
      vertex 67.3614 -71.2748 5
      vertex 67.3614 -71.2748 8.25
    endloop
  endfacet
  facet normal 0.936956 0.349447 0
    outer loop
      vertex 67.3614 -71.2748 5
      vertex 67.4985 -71.6424 8.25
      vertex 67.4985 -71.6424 5
    endloop
  endfacet
  facet normal -0.349447 0.936956 0
    outer loop
      vertex 71.1424 -73.0015 5
      vertex 70.7748 -73.1386 8.25
      vertex 71.1424 -73.0015 8.25
    endloop
  endfacet
  facet normal -0.349447 0.936956 0
    outer loop
      vertex 70.7748 -73.1386 8.25
      vertex 71.1424 -73.0015 5
      vertex 70.7748 -73.1386 5
    endloop
  endfacet
  facet normal -0.0713557 0.997451 0
    outer loop
      vertex 70.3914 -73.222 5
      vertex 70 -73.25 8.25
      vertex 70.3914 -73.222 8.25
    endloop
  endfacet
  facet normal -0.0713557 0.997451 0
    outer loop
      vertex 70 -73.25 8.25
      vertex 70.3914 -73.222 5
      vertex 70 -73.25 5
    endloop
  endfacet
  facet normal -0.877632 0.479334 0
    outer loop
      vertex 72.3134 -71.9868 5
      vertex 72.5015 -71.6424 8.25
      vertex 72.5015 -71.6424 5
    endloop
  endfacet
  facet normal -0.877632 0.479334 0
    outer loop
      vertex 72.5015 -71.6424 8.25
      vertex 72.3134 -71.9868 5
      vertex 72.3134 -71.9868 8.25
    endloop
  endfacet
  facet normal -0.936956 0.349447 0
    outer loop
      vertex 72.5015 -71.6424 5
      vertex 72.6386 -71.2748 8.25
      vertex 72.6386 -71.2748 5
    endloop
  endfacet
  facet normal -0.936956 0.349447 0
    outer loop
      vertex 72.6386 -71.2748 8.25
      vertex 72.5015 -71.6424 5
      vertex 72.5015 -71.6424 8.25
    endloop
  endfacet
  facet normal 0.877632 0.479334 0
    outer loop
      vertex 67.6866 -71.9868 8.25
      vertex 67.4985 -71.6424 5
      vertex 67.4985 -71.6424 8.25
    endloop
  endfacet
  facet normal 0.877632 0.479334 0
    outer loop
      vertex 67.4985 -71.6424 5
      vertex 67.6866 -71.9868 8.25
      vertex 67.6866 -71.9868 5
    endloop
  endfacet
  facet normal 0.599225 0.800581 -0
    outer loop
      vertex 68.5132 -72.8134 5
      vertex 68.1991 -72.5783 8.25
      vertex 68.5132 -72.8134 8.25
    endloop
  endfacet
  facet normal 0.599225 0.800581 0
    outer loop
      vertex 68.1991 -72.5783 8.25
      vertex 68.5132 -72.8134 5
      vertex 68.1991 -72.5783 5
    endloop
  endfacet
  facet normal 0.0713557 0.997451 -0
    outer loop
      vertex 70 -73.25 5
      vertex 69.6086 -73.222 8.25
      vertex 70 -73.25 8.25
    endloop
  endfacet
  facet normal 0.0713557 0.997451 0
    outer loop
      vertex 69.6086 -73.222 8.25
      vertex 70 -73.25 5
      vertex 69.6086 -73.222 5
    endloop
  endfacet
  facet normal 0.997451 0.0713557 0
    outer loop
      vertex 67.278 -70.8914 8.25
      vertex 67.25 -70.5 5
      vertex 67.25 -70.5 8.25
    endloop
  endfacet
  facet normal 0.997451 0.0713557 0
    outer loop
      vertex 67.25 -70.5 5
      vertex 67.278 -70.8914 8.25
      vertex 67.278 -70.8914 5
    endloop
  endfacet
  facet normal 0.877632 -0.479334 0
    outer loop
      vertex 67.4985 -69.3576 8.25
      vertex 67.6866 -69.0132 5
      vertex 67.6866 -69.0132 8.25
    endloop
  endfacet
  facet normal 0.877632 -0.479334 0
    outer loop
      vertex 67.6866 -69.0132 5
      vertex 67.4985 -69.3576 8.25
      vertex 67.4985 -69.3576 5
    endloop
  endfacet
  facet normal 0.212557 -0.977149 0
    outer loop
      vertex 69.2252 -67.8614 5
      vertex 69.6086 -67.778 8.25
      vertex 69.2252 -67.8614 8.25
    endloop
  endfacet
  facet normal 0.212557 -0.977149 0
    outer loop
      vertex 69.6086 -67.778 8.25
      vertex 69.2252 -67.8614 5
      vertex 69.6086 -67.778 5
    endloop
  endfacet
  facet normal -0.707107 -0.707107 0
    outer loop
      vertex 72.0783 -68.6991 5
      vertex 71.8009 -68.4217 8.25
      vertex 71.8009 -68.4217 5
    endloop
  endfacet
  facet normal -0.707107 -0.707107 0
    outer loop
      vertex 71.8009 -68.4217 8.25
      vertex 72.0783 -68.6991 5
      vertex 72.0783 -68.6991 8.25
    endloop
  endfacet
  facet normal 0.800581 -0.599225 0
    outer loop
      vertex 67.6866 -69.0132 8.25
      vertex 67.9217 -68.6991 5
      vertex 67.9217 -68.6991 8.25
    endloop
  endfacet
  facet normal 0.800581 -0.599225 0
    outer loop
      vertex 67.9217 -68.6991 5
      vertex 67.6866 -69.0132 8.25
      vertex 67.6866 -69.0132 5
    endloop
  endfacet
  facet normal -0.599225 0.800581 0
    outer loop
      vertex 71.8009 -72.5783 5
      vertex 71.4868 -72.8134 8.25
      vertex 71.8009 -72.5783 8.25
    endloop
  endfacet
  facet normal -0.599225 0.800581 0
    outer loop
      vertex 71.4868 -72.8134 8.25
      vertex 71.8009 -72.5783 5
      vertex 71.4868 -72.8134 5
    endloop
  endfacet
  facet normal 0.936956 -0.349447 0
    outer loop
      vertex 67.3614 -69.7252 8.25
      vertex 67.4985 -69.3576 5
      vertex 67.4985 -69.3576 8.25
    endloop
  endfacet
  facet normal 0.936956 -0.349447 0
    outer loop
      vertex 67.4985 -69.3576 5
      vertex 67.3614 -69.7252 8.25
      vertex 67.3614 -69.7252 5
    endloop
  endfacet
  facet normal -0.866023 -0.500003 0
    outer loop
      vertex 75.35 70.5 0
      vertex 72.7519 75 5
      vertex 72.7519 75 0
    endloop
  endfacet
  facet normal -0.866023 -0.500003 0
    outer loop
      vertex 72.7519 75 5
      vertex 75.35 70.5 0
      vertex 75.35 70.5 5
    endloop
  endfacet
  facet normal 0.866023 -0.500003 0
    outer loop
      vertex 64.65 70.5 5
      vertex 67.2481 75 0
      vertex 67.2481 75 5
    endloop
  endfacet
  facet normal 0.866023 -0.500003 0
    outer loop
      vertex 67.2481 75 0
      vertex 64.65 70.5 5
      vertex 64.65 70.5 0
    endloop
  endfacet
  facet normal 0.866024 0.500003 0
    outer loop
      vertex 67.325 65.8668 5
      vertex 64.65 70.5 0
      vertex 64.65 70.5 5
    endloop
  endfacet
  facet normal 0.866024 0.500003 0
    outer loop
      vertex 64.65 70.5 0
      vertex 67.325 65.8668 5
      vertex 67.325 65.8668 0
    endloop
  endfacet
  facet normal 0 0 -1
    outer loop
      vertex 72.722 70.8914 5
      vertex 75.35 70.5 5
      vertex 72.75 70.5 5
    endloop
  endfacet
  facet normal -0 0 -1
    outer loop
      vertex 75.35 70.5 5
      vertex 72.722 70.1086 5
      vertex 72.75 70.5 5
    endloop
  endfacet
  facet normal 0 0 -1
    outer loop
      vertex 72.3134 69.0132 5
      vertex 75.35 70.5 5
      vertex 72.675 65.8668 5
    endloop
  endfacet
  facet normal 0 0 -1
    outer loop
      vertex 75.35 70.5 5
      vertex 72.6386 69.7252 5
      vertex 72.722 70.1086 5
    endloop
  endfacet
  facet normal 0 0 -1
    outer loop
      vertex 75.35 70.5 5
      vertex 72.5015 69.3576 5
      vertex 72.6386 69.7252 5
    endloop
  endfacet
  facet normal 0 0 -1
    outer loop
      vertex 75.35 70.5 5
      vertex 72.3134 69.0132 5
      vertex 72.5015 69.3576 5
    endloop
  endfacet
  facet normal 0 0 -1
    outer loop
      vertex 72.675 65.8668 5
      vertex 72.0783 68.6991 5
      vertex 72.3134 69.0132 5
    endloop
  endfacet
  facet normal 0 0 -1
    outer loop
      vertex 72.675 65.8668 5
      vertex 71.8009 68.4217 5
      vertex 72.0783 68.6991 5
    endloop
  endfacet
  facet normal 0 0 -1
    outer loop
      vertex 72.675 65.8668 5
      vertex 71.4868 68.1866 5
      vertex 71.8009 68.4217 5
    endloop
  endfacet
  facet normal 0 0 -1
    outer loop
      vertex 72.675 65.8668 5
      vertex 71.1424 67.9985 5
      vertex 71.4868 68.1866 5
    endloop
  endfacet
  facet normal 0 0 -1
    outer loop
      vertex 72.675 65.8668 5
      vertex 70.7748 67.8614 5
      vertex 71.1424 67.9985 5
    endloop
  endfacet
  facet normal 0 0 -1
    outer loop
      vertex 72.675 65.8668 5
      vertex 70.3914 67.778 5
      vertex 70.7748 67.8614 5
    endloop
  endfacet
  facet normal 0 0 -1
    outer loop
      vertex 72.675 65.8668 5
      vertex 70 67.75 5
      vertex 70.3914 67.778 5
    endloop
  endfacet
  facet normal 0 0 -1
    outer loop
      vertex 67.325 65.8668 5
      vertex 70 67.75 5
      vertex 72.675 65.8668 5
    endloop
  endfacet
  facet normal -0 0 -1
    outer loop
      vertex 70 67.75 5
      vertex 67.325 65.8668 5
      vertex 69.6086 67.778 5
    endloop
  endfacet
  facet normal -0 0 -1
    outer loop
      vertex 69.6086 67.778 5
      vertex 67.325 65.8668 5
      vertex 69.2252 67.8614 5
    endloop
  endfacet
  facet normal -0 0 -1
    outer loop
      vertex 69.2252 67.8614 5
      vertex 67.325 65.8668 5
      vertex 68.8576 67.9985 5
    endloop
  endfacet
  facet normal -0 0 -1
    outer loop
      vertex 68.8576 67.9985 5
      vertex 67.325 65.8668 5
      vertex 68.5132 68.1866 5
    endloop
  endfacet
  facet normal 0 0 -1
    outer loop
      vertex 67.325 65.8668 5
      vertex 68.1991 68.4217 5
      vertex 68.5132 68.1866 5
    endloop
  endfacet
  facet normal 0 0 -1
    outer loop
      vertex 67.325 65.8668 5
      vertex 67.9217 68.6991 5
      vertex 68.1991 68.4217 5
    endloop
  endfacet
  facet normal 0 0 -1
    outer loop
      vertex 67.325 65.8668 5
      vertex 67.6866 69.0132 5
      vertex 67.9217 68.6991 5
    endloop
  endfacet
  facet normal 0 0 -1
    outer loop
      vertex 64.65 70.5 5
      vertex 67.6866 69.0132 5
      vertex 67.325 65.8668 5
    endloop
  endfacet
  facet normal 0 0 -1
    outer loop
      vertex 67.6866 69.0132 5
      vertex 64.65 70.5 5
      vertex 67.4985 69.3576 5
    endloop
  endfacet
  facet normal 0 0 -1
    outer loop
      vertex 67.4985 69.3576 5
      vertex 64.65 70.5 5
      vertex 67.3614 69.7252 5
    endloop
  endfacet
  facet normal 0 0 -1
    outer loop
      vertex 67.3614 69.7252 5
      vertex 64.65 70.5 5
      vertex 67.278 70.1086 5
    endloop
  endfacet
  facet normal -0 0 -1
    outer loop
      vertex 67.6866 71.9868 5
      vertex 64.65 70.5 5
      vertex 67.2481 75 5
    endloop
  endfacet
  facet normal 0 0 -1
    outer loop
      vertex 67.278 70.1086 5
      vertex 64.65 70.5 5
      vertex 67.25 70.5 5
    endloop
  endfacet
  facet normal 0 0 -1
    outer loop
      vertex 72.6386 71.2748 5
      vertex 75.35 70.5 5
      vertex 72.722 70.8914 5
    endloop
  endfacet
  facet normal 0 0 -1
    outer loop
      vertex 72.5015 71.6424 5
      vertex 75.35 70.5 5
      vertex 72.6386 71.2748 5
    endloop
  endfacet
  facet normal 0 0 -1
    outer loop
      vertex 72.3134 71.9868 5
      vertex 75.35 70.5 5
      vertex 72.5015 71.6424 5
    endloop
  endfacet
  facet normal 0 0 -1
    outer loop
      vertex 75.35 70.5 5
      vertex 72.3134 71.9868 5
      vertex 72.7519 75 5
    endloop
  endfacet
  facet normal 0 0 -1
    outer loop
      vertex 72.0783 72.3009 5
      vertex 72.7519 75 5
      vertex 72.3134 71.9868 5
    endloop
  endfacet
  facet normal 0 0 -1
    outer loop
      vertex 71.8009 72.5783 5
      vertex 72.7519 75 5
      vertex 72.0783 72.3009 5
    endloop
  endfacet
  facet normal 0 0 -1
    outer loop
      vertex 71.4868 72.8134 5
      vertex 72.7519 75 5
      vertex 71.8009 72.5783 5
    endloop
  endfacet
  facet normal 0 0 -1
    outer loop
      vertex 71.1424 73.0015 5
      vertex 72.7519 75 5
      vertex 71.4868 72.8134 5
    endloop
  endfacet
  facet normal 0 0 -1
    outer loop
      vertex 70.7748 73.1386 5
      vertex 72.7519 75 5
      vertex 71.1424 73.0015 5
    endloop
  endfacet
  facet normal 0 0 -1
    outer loop
      vertex 70.3914 73.222 5
      vertex 72.7519 75 5
      vertex 70.7748 73.1386 5
    endloop
  endfacet
  facet normal 0 0 -1
    outer loop
      vertex 70 73.25 5
      vertex 72.7519 75 5
      vertex 70.3914 73.222 5
    endloop
  endfacet
  facet normal 0 0 -1
    outer loop
      vertex 67.2481 75 5
      vertex 70 73.25 5
      vertex 69.6086 73.222 5
    endloop
  endfacet
  facet normal 0 0 -1
    outer loop
      vertex 67.2481 75 5
      vertex 69.6086 73.222 5
      vertex 69.2252 73.1386 5
    endloop
  endfacet
  facet normal 0 0 -1
    outer loop
      vertex 67.2481 75 5
      vertex 69.2252 73.1386 5
      vertex 68.8576 73.0015 5
    endloop
  endfacet
  facet normal 0 0 -1
    outer loop
      vertex 70 73.25 5
      vertex 67.2481 75 5
      vertex 72.7519 75 5
    endloop
  endfacet
  facet normal 0 0 -1
    outer loop
      vertex 68.5132 72.8134 5
      vertex 67.2481 75 5
      vertex 68.8576 73.0015 5
    endloop
  endfacet
  facet normal 0 0 -1
    outer loop
      vertex 68.1991 72.5783 5
      vertex 67.2481 75 5
      vertex 68.5132 72.8134 5
    endloop
  endfacet
  facet normal 0 0 -1
    outer loop
      vertex 67.9217 72.3009 5
      vertex 67.2481 75 5
      vertex 68.1991 72.5783 5
    endloop
  endfacet
  facet normal 0 0 -1
    outer loop
      vertex 67.6866 71.9868 5
      vertex 67.2481 75 5
      vertex 67.9217 72.3009 5
    endloop
  endfacet
  facet normal 0 0 -1
    outer loop
      vertex 64.65 70.5 5
      vertex 67.6866 71.9868 5
      vertex 67.4985 71.6424 5
    endloop
  endfacet
  facet normal 0 0 -1
    outer loop
      vertex 64.65 70.5 5
      vertex 67.4985 71.6424 5
      vertex 67.3614 71.2748 5
    endloop
  endfacet
  facet normal 0 0 -1
    outer loop
      vertex 64.65 70.5 5
      vertex 67.3614 71.2748 5
      vertex 67.278 70.8914 5
    endloop
  endfacet
  facet normal 0 0 -1
    outer loop
      vertex 64.65 70.5 5
      vertex 67.278 70.8914 5
      vertex 67.25 70.5 5
    endloop
  endfacet
  facet normal -0.866024 0.500003 0
    outer loop
      vertex 72.675 65.8668 0
      vertex 75.35 70.5 5
      vertex 75.35 70.5 0
    endloop
  endfacet
  facet normal -0.866024 0.500003 0
    outer loop
      vertex 75.35 70.5 5
      vertex 72.675 65.8668 0
      vertex 72.675 65.8668 5
    endloop
  endfacet
  facet normal 0 1 -0
    outer loop
      vertex 72.675 65.8668 0
      vertex 67.325 65.8668 5
      vertex 72.675 65.8668 5
    endloop
  endfacet
  facet normal 0 1 0
    outer loop
      vertex 67.325 65.8668 5
      vertex 72.675 65.8668 0
      vertex 67.325 65.8668 0
    endloop
  endfacet
  facet normal -0.866023 0.500003 0
    outer loop
      vertex 72.7519 -75 0
      vertex 75.35 -70.5 5
      vertex 75.35 -70.5 0
    endloop
  endfacet
  facet normal -0.866023 0.500003 0
    outer loop
      vertex 75.35 -70.5 5
      vertex 72.7519 -75 0
      vertex 72.7519 -75 5
    endloop
  endfacet
  facet normal 0 -1 0
    outer loop
      vertex 67.325 -65.8668 0
      vertex 72.675 -65.8668 5
      vertex 67.325 -65.8668 5
    endloop
  endfacet
  facet normal 0 -1 -0
    outer loop
      vertex 72.675 -65.8668 5
      vertex 67.325 -65.8668 0
      vertex 72.675 -65.8668 0
    endloop
  endfacet
  facet normal -0.866024 -0.500003 0
    outer loop
      vertex 75.35 -70.5 0
      vertex 72.675 -65.8668 5
      vertex 72.675 -65.8668 0
    endloop
  endfacet
  facet normal -0.866024 -0.500003 0
    outer loop
      vertex 72.675 -65.8668 5
      vertex 75.35 -70.5 0
      vertex 75.35 -70.5 5
    endloop
  endfacet
  facet normal 0.866024 -0.500003 0
    outer loop
      vertex 64.65 -70.5 5
      vertex 67.325 -65.8668 0
      vertex 67.325 -65.8668 5
    endloop
  endfacet
  facet normal 0.866024 -0.500003 0
    outer loop
      vertex 67.325 -65.8668 0
      vertex 64.65 -70.5 5
      vertex 64.65 -70.5 0
    endloop
  endfacet
  facet normal 0.866023 0.500003 0
    outer loop
      vertex 67.2481 -75 5
      vertex 64.65 -70.5 0
      vertex 64.65 -70.5 5
    endloop
  endfacet
  facet normal 0.866023 0.500003 0
    outer loop
      vertex 64.65 -70.5 0
      vertex 67.2481 -75 5
      vertex 67.2481 -75 0
    endloop
  endfacet
  facet normal -0 0 -1
    outer loop
      vertex 75.35 -70.5 5
      vertex 72.722 -70.8914 5
      vertex 72.75 -70.5 5
    endloop
  endfacet
  facet normal 0 0 -1
    outer loop
      vertex 75.35 -70.5 5
      vertex 72.6386 -71.2748 5
      vertex 72.722 -70.8914 5
    endloop
  endfacet
  facet normal 0 0 -1
    outer loop
      vertex 75.35 -70.5 5
      vertex 72.5015 -71.6424 5
      vertex 72.6386 -71.2748 5
    endloop
  endfacet
  facet normal 0 0 -1
    outer loop
      vertex 75.35 -70.5 5
      vertex 72.3134 -71.9868 5
      vertex 72.5015 -71.6424 5
    endloop
  endfacet
  facet normal 0 0 -1
    outer loop
      vertex 72.7519 -75 5
      vertex 72.0783 -72.3009 5
      vertex 72.3134 -71.9868 5
    endloop
  endfacet
  facet normal 0 0 -1
    outer loop
      vertex 72.7519 -75 5
      vertex 71.8009 -72.5783 5
      vertex 72.0783 -72.3009 5
    endloop
  endfacet
  facet normal 0 0 -1
    outer loop
      vertex 72.7519 -75 5
      vertex 71.4868 -72.8134 5
      vertex 71.8009 -72.5783 5
    endloop
  endfacet
  facet normal 0 0 -1
    outer loop
      vertex 72.7519 -75 5
      vertex 71.1424 -73.0015 5
      vertex 71.4868 -72.8134 5
    endloop
  endfacet
  facet normal 0 0 -1
    outer loop
      vertex 72.7519 -75 5
      vertex 70.7748 -73.1386 5
      vertex 71.1424 -73.0015 5
    endloop
  endfacet
  facet normal 0 0 -1
    outer loop
      vertex 72.7519 -75 5
      vertex 70.3914 -73.222 5
      vertex 70.7748 -73.1386 5
    endloop
  endfacet
  facet normal 0 0 -1
    outer loop
      vertex 72.7519 -75 5
      vertex 70 -73.25 5
      vertex 70.3914 -73.222 5
    endloop
  endfacet
  facet normal 0 0 -1
    outer loop
      vertex 67.2481 -75 5
      vertex 70 -73.25 5
      vertex 72.7519 -75 5
    endloop
  endfacet
  facet normal -0 0 -1
    outer loop
      vertex 70 -73.25 5
      vertex 67.2481 -75 5
      vertex 69.6086 -73.222 5
    endloop
  endfacet
  facet normal -0 0 -1
    outer loop
      vertex 69.6086 -73.222 5
      vertex 67.2481 -75 5
      vertex 69.2252 -73.1386 5
    endloop
  endfacet
  facet normal 0 0 -1
    outer loop
      vertex 67.3614 -71.2748 5
      vertex 64.65 -70.5 5
      vertex 67.278 -70.8914 5
    endloop
  endfacet
  facet normal 0 0 -1
    outer loop
      vertex 67.4985 -71.6424 5
      vertex 64.65 -70.5 5
      vertex 67.3614 -71.2748 5
    endloop
  endfacet
  facet normal 0 0 -1
    outer loop
      vertex 67.6866 -71.9868 5
      vertex 64.65 -70.5 5
      vertex 67.4985 -71.6424 5
    endloop
  endfacet
  facet normal 0 0 -1
    outer loop
      vertex 64.65 -70.5 5
      vertex 67.6866 -71.9868 5
      vertex 67.2481 -75 5
    endloop
  endfacet
  facet normal -0 0 -1
    outer loop
      vertex 67.9217 -72.3009 5
      vertex 67.2481 -75 5
      vertex 67.6866 -71.9868 5
    endloop
  endfacet
  facet normal -0 0 -1
    outer loop
      vertex 68.1991 -72.5783 5
      vertex 67.2481 -75 5
      vertex 67.9217 -72.3009 5
    endloop
  endfacet
  facet normal -0 0 -1
    outer loop
      vertex 68.5132 -72.8134 5
      vertex 67.2481 -75 5
      vertex 68.1991 -72.5783 5
    endloop
  endfacet
  facet normal -0 0 -1
    outer loop
      vertex 68.8576 -73.0015 5
      vertex 67.2481 -75 5
      vertex 68.5132 -72.8134 5
    endloop
  endfacet
  facet normal -0 0 -1
    outer loop
      vertex 69.2252 -73.1386 5
      vertex 67.2481 -75 5
      vertex 68.8576 -73.0015 5
    endloop
  endfacet
  facet normal 0 0 -1
    outer loop
      vertex 72.3134 -71.9868 5
      vertex 75.35 -70.5 5
      vertex 72.7519 -75 5
    endloop
  endfacet
  facet normal 0 0 -1
    outer loop
      vertex 72.722 -70.1086 5
      vertex 75.35 -70.5 5
      vertex 72.75 -70.5 5
    endloop
  endfacet
  facet normal 0 0 -1
    outer loop
      vertex 72.6386 -69.7252 5
      vertex 75.35 -70.5 5
      vertex 72.722 -70.1086 5
    endloop
  endfacet
  facet normal 0 0 -1
    outer loop
      vertex 72.5015 -69.3576 5
      vertex 75.35 -70.5 5
      vertex 72.6386 -69.7252 5
    endloop
  endfacet
  facet normal 0 0 -1
    outer loop
      vertex 72.3134 -69.0132 5
      vertex 75.35 -70.5 5
      vertex 72.5015 -69.3576 5
    endloop
  endfacet
  facet normal 0 0 -1
    outer loop
      vertex 75.35 -70.5 5
      vertex 72.3134 -69.0132 5
      vertex 72.675 -65.8668 5
    endloop
  endfacet
  facet normal 0 0 -1
    outer loop
      vertex 72.0783 -68.6991 5
      vertex 72.675 -65.8668 5
      vertex 72.3134 -69.0132 5
    endloop
  endfacet
  facet normal 0 0 -1
    outer loop
      vertex 71.8009 -68.4217 5
      vertex 72.675 -65.8668 5
      vertex 72.0783 -68.6991 5
    endloop
  endfacet
  facet normal 0 0 -1
    outer loop
      vertex 71.4868 -68.1866 5
      vertex 72.675 -65.8668 5
      vertex 71.8009 -68.4217 5
    endloop
  endfacet
  facet normal 0 0 -1
    outer loop
      vertex 71.1424 -67.9985 5
      vertex 72.675 -65.8668 5
      vertex 71.4868 -68.1866 5
    endloop
  endfacet
  facet normal 0 0 -1
    outer loop
      vertex 70.7748 -67.8614 5
      vertex 72.675 -65.8668 5
      vertex 71.1424 -67.9985 5
    endloop
  endfacet
  facet normal 0 0 -1
    outer loop
      vertex 70.3914 -67.778 5
      vertex 72.675 -65.8668 5
      vertex 70.7748 -67.8614 5
    endloop
  endfacet
  facet normal 0 0 -1
    outer loop
      vertex 70 -67.75 5
      vertex 72.675 -65.8668 5
      vertex 70.3914 -67.778 5
    endloop
  endfacet
  facet normal 0 0 -1
    outer loop
      vertex 67.325 -65.8668 5
      vertex 70 -67.75 5
      vertex 69.6086 -67.778 5
    endloop
  endfacet
  facet normal 0 0 -1
    outer loop
      vertex 67.325 -65.8668 5
      vertex 69.6086 -67.778 5
      vertex 69.2252 -67.8614 5
    endloop
  endfacet
  facet normal 0 0 -1
    outer loop
      vertex 67.325 -65.8668 5
      vertex 69.2252 -67.8614 5
      vertex 68.8576 -67.9985 5
    endloop
  endfacet
  facet normal 0 0 -1
    outer loop
      vertex 67.325 -65.8668 5
      vertex 68.8576 -67.9985 5
      vertex 68.5132 -68.1866 5
    endloop
  endfacet
  facet normal 0 0 -1
    outer loop
      vertex 70 -67.75 5
      vertex 67.325 -65.8668 5
      vertex 72.675 -65.8668 5
    endloop
  endfacet
  facet normal 0 0 -1
    outer loop
      vertex 68.1991 -68.4217 5
      vertex 67.325 -65.8668 5
      vertex 68.5132 -68.1866 5
    endloop
  endfacet
  facet normal 0 0 -1
    outer loop
      vertex 67.9217 -68.6991 5
      vertex 67.325 -65.8668 5
      vertex 68.1991 -68.4217 5
    endloop
  endfacet
  facet normal 0 0 -1
    outer loop
      vertex 67.6866 -69.0132 5
      vertex 67.325 -65.8668 5
      vertex 67.9217 -68.6991 5
    endloop
  endfacet
  facet normal 0 0 -1
    outer loop
      vertex 64.65 -70.5 5
      vertex 67.6866 -69.0132 5
      vertex 67.4985 -69.3576 5
    endloop
  endfacet
  facet normal 0 0 -1
    outer loop
      vertex 64.65 -70.5 5
      vertex 67.4985 -69.3576 5
      vertex 67.3614 -69.7252 5
    endloop
  endfacet
  facet normal 0 0 -1
    outer loop
      vertex 64.65 -70.5 5
      vertex 67.3614 -69.7252 5
      vertex 67.278 -70.1086 5
    endloop
  endfacet
  facet normal 0 0 -1
    outer loop
      vertex 64.65 -70.5 5
      vertex 67.278 -70.1086 5
      vertex 67.25 -70.5 5
    endloop
  endfacet
  facet normal -0 0 -1
    outer loop
      vertex 67.6866 -69.0132 5
      vertex 64.65 -70.5 5
      vertex 67.325 -65.8668 5
    endloop
  endfacet
  facet normal 0 0 -1
    outer loop
      vertex 67.278 -70.8914 5
      vertex 64.65 -70.5 5
      vertex 67.25 -70.5 5
    endloop
  endfacet
endsolid OpenSCAD_Model
